<?xml version="1.0" encoding="UTF-8" standalone="no"?>
<svg
   xmlns:dc="http://purl.org/dc/elements/1.1/"
   xmlns:cc="http://creativecommons.org/ns#"
   xmlns:rdf="http://www.w3.org/1999/02/22-rdf-syntax-ns#"
   xmlns:svg="http://www.w3.org/2000/svg"
   xmlns="http://www.w3.org/2000/svg"
   xmlns:sodipodi="http://sodipodi.sourceforge.net/DTD/sodipodi-0.dtd"
   xmlns:inkscape="http://www.inkscape.org/namespaces/inkscape"
   width="1024pt"
   height="1024pt"
   viewBox="0 0 361.24445 361.24444"
   version="1.1"
   id="svg8"
   inkscape:version="1.0.1 (c497b03c, 2020-09-10)"
   sodipodi:docname="Ninja-Squirrel-TShirt-Design.svg"
   inkscape:export-filename="C:\Users\User\Ninja Squirrel Inskape.png"
   inkscape:export-xdpi="96"
   inkscape:export-ydpi="96">
  <defs
     id="defs2">
    <clipPath
       clipPathUnits="userSpaceOnUse"
       id="clipPath906">
      <path
         id="path908"
         style="display:inline;fill:#000000;fill-rule:evenodd;stroke:none;stroke-width:0.212398;stroke-linecap:square;stroke-miterlimit:10"
         inkscape:transform-center-x="95.636862"
         inkscape:transform-center-y="-127.36473"
         d="m 180.62205,4.8265788 c -97.089223,0 -175.7954712,78.7062372 -175.7954712,175.7954712 0,97.08919 78.7062482,175.79598 175.7954712,175.79598 97.08921,0 175.79598,-78.70679 175.79598,-175.79598 0,-46.6239 -18.52128,-91.338036 -51.48937,-124.306108 C 271.96054,23.347872 227.24595,4.8265788 180.62205,4.8265788 Z m -0.007,41.1788812 c 35.69944,0 69.93643,14.182585 95.17971,39.427565 25.24334,25.244975 39.42498,59.484635 39.42498,95.186435 0,74.34511 -60.26447,134.61348 -134.60469,134.61348 -74.34021,0 -134.604703,-60.26837 -134.604703,-134.61348 0,-74.34512 60.264493,-134.614 134.604703,-134.614 z" />
    </clipPath>
  </defs>
  <sodipodi:namedview
     id="base"
     pagecolor="#b8b8b8"
     bordercolor="#666666"
     borderopacity="1.0"
     inkscape:pageopacity="0.78431373"
     inkscape:pageshadow="2"
     inkscape:zoom="0.58374023"
     inkscape:cx="682.66667"
     inkscape:cy="682.66667"
     inkscape:document-units="pt"
     inkscape:current-layer="g5772"
     showgrid="false"
     units="pt"
     inkscape:pagecheckerboard="true"
     showborder="true"
     borderlayer="false"
     inkscape:snap-global="false"
     inkscape:window-width="1680"
     inkscape:window-height="1005"
     inkscape:window-x="1920"
     inkscape:window-y="23"
     inkscape:window-maximized="1"
     inkscape:document-rotation="0" />
  <metadata
     id="metadata5">
    <rdf:RDF>
      <cc:Work
         rdf:about="">
        <dc:format>image/svg+xml</dc:format>
        <dc:type
           rdf:resource="http://purl.org/dc/dcmitype/StillImage" />
        <dc:title />
      </cc:Work>
    </rdf:RDF>
  </metadata>
  <g
     inkscape:groupmode="layer"
     id="layer6"
     inkscape:label="Outer Circles"
     style="display:inline">
    <g
       id="g855"
       clip-path="url(#clipPath906)">
      <path
         id="path3718"
         style="fill:#ffffff;fill-rule:evenodd;stroke:none;stroke-width:0.212398;stroke-linecap:square;stroke-miterlimit:10"
         d="m 180.62205,4.8265788 c -97.089217,0 -175.7954715,78.7062442 -175.7954715,175.7954712 0,97.08922 78.7062495,175.79598 175.7954715,175.79598 97.08921,0 175.79598,-78.70676 175.79598,-175.79598 0,-46.62389 -18.52128,-91.338038 -51.48937,-124.306107 C 271.96057,23.347872 227.24595,4.8265788 180.62205,4.8265788 Z m 0,13.2420852 c 43.11184,0 84.45819,17.126388 114.94285,47.611047 30.48468,30.484661 47.61052,71.830539 47.61052,114.942339 0,89.77571 -72.77766,162.55338 -162.55337,162.55338 -89.775716,0 -162.553386,-72.77767 -162.553386,-162.55338 0,-89.775718 72.777678,-162.553386 162.553386,-162.553386 z" />
      <path
         id="path3726"
         d="m 125.36226,317.6905 8.77704,-3.37264 3.37654,-8.76684 3.37653,8.76684 8.77704,3.37264 -8.77704,3.37263 -3.37653,8.76684 -3.37654,-8.76684 z"
         inkscape:connector-curvature="0"
         style="fill:#ffffff;fill-opacity:1;fill-rule:evenodd;stroke:none;stroke-width:0.212398;stroke-linecap:square;stroke-miterlimit:10" />
      <path
         id="path3728"
         d="m 148.15332,38.353933 11.54659,-4.441982 4.44199,-11.546597 4.44198,11.546597 11.54659,4.441982 -11.54659,4.441982 -4.44198,11.546597 -4.44199,-11.546597 z"
         inkscape:connector-curvature="0"
         style="fill:#ffffff;fill-opacity:1;fill-rule:evenodd;stroke:none;stroke-width:0.212398;stroke-linecap:square;stroke-miterlimit:10" />
      <path
         id="path3730"
         d="m 186.56168,61.980082 10.25346,-3.944511 3.94453,-10.25346 3.94451,10.25346 10.25346,3.944511 -10.25346,3.944512 -3.94451,10.253458 -3.94453,-10.253458 z"
         inkscape:connector-curvature="0"
         style="fill:#ffffff;fill-opacity:0.2011;fill-rule:evenodd;stroke:none;stroke-width:0.212398;stroke-linecap:square;stroke-miterlimit:10" />
      <path
         id="path3732"
         d="m 228.83318,52.16604 11.54659,-4.441982 4.442,-11.546596 4.44197,11.546596 11.54659,4.441982 -11.54659,4.441981 -4.44197,11.546598 -4.442,-11.546598 z"
         inkscape:connector-curvature="0"
         style="fill:#ffffff;fill-opacity:1;fill-rule:evenodd;stroke:none;stroke-width:0.212398;stroke-linecap:square;stroke-miterlimit:10" />
      <path
         id="path3734"
         d="m 258.23967,74.733856 10.25347,-3.944518 3.94451,-10.253458 3.94449,10.253458 10.25347,3.944518 -10.25347,3.944511 -3.94449,10.253458 -3.94451,-10.253458 z"
         inkscape:connector-curvature="0"
         style="fill:#ffffff;fill-opacity:1;fill-rule:evenodd;stroke:none;stroke-width:0.212398;stroke-linecap:square;stroke-miterlimit:10" />
      <path
         id="path3736"
         d="m 168.77262,107.42797 11.5466,-4.44198 4.44198,-11.546592 4.44198,11.546592 11.54659,4.44198 -11.54659,4.44199 -4.44198,11.5466 -4.44198,-11.5466 z"
         inkscape:connector-curvature="0"
         style="fill:#ffffff;fill-opacity:0.2011;fill-rule:evenodd;stroke:none;stroke-width:0.212398;stroke-linecap:square;stroke-miterlimit:10" />
      <path
         id="path3738"
         d="m 208.45636,90.825104 8.77705,-3.372621 3.37652,-8.766858 3.37656,8.766858 8.77702,3.372621 -8.77702,3.372614 -3.37656,8.766862 -3.37652,-8.766862 z"
         inkscape:connector-curvature="0"
         style="fill:#ffffff;fill-opacity:0.2011;fill-rule:evenodd;stroke:none;stroke-width:0.212398;stroke-linecap:square;stroke-miterlimit:10" />
      <path
         id="path3740"
         d="m 198.17912,129.99579 10.25346,-3.94452 3.94451,-10.25345 3.94451,10.25345 10.25347,3.94452 -10.25347,3.94451 -3.94451,10.25346 -3.94451,-10.25346 z"
         inkscape:connector-curvature="0"
         style="fill:#ffffff;fill-opacity:0.2011;fill-rule:evenodd;stroke:none;stroke-width:0.212398;stroke-linecap:square;stroke-miterlimit:10" />
      <path
         id="path3742"
         d="m 246.12976,121.01481 11.54659,-4.44199 4.44199,-11.54658 4.44197,11.54658 11.54659,4.44199 -11.54659,4.44198 -4.44197,11.54659 -4.44199,-11.54659 z"
         inkscape:connector-curvature="0"
         style="fill:#ffffff;fill-opacity:0.2011;fill-rule:evenodd;stroke:none;stroke-width:0.212398;stroke-linecap:square;stroke-miterlimit:10" />
      <path
         id="path3744"
         d="m 280.13437,109.3812 8.77704,-3.37262 3.37654,-8.766856 3.37654,8.766856 8.77705,3.37262 -8.77705,3.37262 -3.37654,8.76686 -3.37654,-8.76686 z"
         inkscape:connector-curvature="0"
         style="fill:#ffffff;fill-opacity:0.2011;fill-rule:evenodd;stroke:none;stroke-width:0.212398;stroke-linecap:square;stroke-miterlimit:10" />
      <path
         id="path3746"
         d="m 269.85714,148.55189 10.25346,-3.94451 3.94452,-10.25346 3.94449,10.25346 10.25347,3.94451 -10.25347,3.94451 -3.94449,10.25346 -3.94452,-10.25346 z"
         inkscape:connector-curvature="0"
         style="fill:#ffffff;fill-opacity:0.2011;fill-rule:evenodd;stroke:none;stroke-width:0.212398;stroke-linecap:square;stroke-miterlimit:10" />
      <path
         id="path3750"
         d="m 222.53283,167.37332 8.77704,-3.37262 3.37652,-8.76686 3.37654,8.76686 8.77704,3.37262 -8.77704,3.37261 -3.37654,8.76687 -3.37652,-8.76687 z"
         inkscape:connector-curvature="0"
         style="fill:#ffffff;fill-opacity:0.2011;fill-rule:evenodd;stroke:none;stroke-width:0.212398;stroke-linecap:square;stroke-miterlimit:10" />
      <path
         id="path3752"
         d="m 212.25557,206.544 10.25345,-3.94451 3.94451,-10.25346 3.94452,10.25346 10.25346,3.94451 -10.25346,3.94451 -3.94452,10.25348 -3.94451,-10.25348 z"
         inkscape:connector-curvature="0"
         style="fill:#ffffff;fill-opacity:0.2011;fill-rule:evenodd;stroke:none;stroke-width:0.212398;stroke-linecap:square;stroke-miterlimit:10" />
      <path
         id="path3754"
         d="m 254.52707,196.72996 11.54659,-4.44198 4.442,-11.54659 4.44197,11.54659 11.54659,4.44198 -11.54659,4.44198 -4.44197,11.5466 -4.442,-11.5466 z"
         inkscape:connector-curvature="0"
         style="fill:#ffffff;fill-opacity:0.2011;fill-rule:evenodd;stroke:none;stroke-width:0.212398;stroke-linecap:square;stroke-miterlimit:10" />
      <path
         id="path3756"
         d="m 294.21082,180.12709 8.77704,-3.37262 3.37654,-8.76686 3.37654,8.76686 8.77704,3.37262 -8.77704,3.37262 -3.37654,8.76685 -3.37654,-8.76685 z"
         inkscape:connector-curvature="0"
         style="fill:#ffffff;fill-opacity:0.2011;fill-rule:evenodd;stroke:none;stroke-width:0.212398;stroke-linecap:square;stroke-miterlimit:10" />
      <path
         id="path3758"
         d="m 283.93358,219.29777 10.25347,-3.94449 3.94451,-10.25347 3.9445,10.25347 10.25346,3.94449 -10.25346,3.94451 -3.9445,10.25347 -3.94451,-10.25347 z"
         inkscape:connector-curvature="0"
         style="fill:#ffffff;fill-opacity:0.2011;fill-rule:evenodd;stroke:none;stroke-width:0.212398;stroke-linecap:square;stroke-miterlimit:10" />
      <path
         id="path3760"
         d="m 194.46649,251.99188 11.54659,-4.44199 4.44199,-11.54659 4.44198,11.54659 11.54661,4.44199 -11.54661,4.442 -4.44198,11.54659 -4.44199,-11.54659 z"
         inkscape:connector-curvature="0"
         style="fill:#ffffff;fill-opacity:0.2011;fill-rule:evenodd;stroke:none;stroke-width:0.212398;stroke-linecap:square;stroke-miterlimit:10" />
      <path
         id="path3762"
         d="m 234.15026,235.38902 8.77704,-3.37261 3.37654,-8.76684 3.37652,8.76684 8.77704,3.37261 -8.77704,3.37263 -3.37652,8.76685 -3.37654,-8.76685 z"
         inkscape:connector-curvature="0"
         style="fill:#ffffff;fill-opacity:0.2011;fill-rule:evenodd;stroke:none;stroke-width:0.212398;stroke-linecap:square;stroke-miterlimit:10" />
      <path
         id="path3764"
         d="m 223.873,274.55972 10.25347,-3.94451 3.94451,-10.25347 3.94449,10.25347 10.25347,3.94451 -10.25347,3.94451 -3.94449,10.25347 -3.94451,-10.25347 z"
         inkscape:connector-curvature="0"
         style="fill:#ffffff;fill-opacity:0.2011;fill-rule:evenodd;stroke:none;stroke-width:0.212398;stroke-linecap:square;stroke-miterlimit:10" />
      <path
         id="path3768"
         d="m 297.01811,244.62213 8.77704,-3.37263 3.37654,-8.76685 3.37654,8.76685 8.77704,3.37263 -8.77704,3.37261 -3.37654,8.76687 -3.37654,-8.76687 z"
         inkscape:connector-curvature="0"
         style="fill:#ffffff;fill-opacity:1;fill-rule:evenodd;stroke:none;stroke-width:0.212398;stroke-linecap:square;stroke-miterlimit:10" />
      <path
         id="path3770"
         d="m 244.3595,302.88989 8.28948,-3.18896 3.18897,-8.28946 3.18895,8.28946 8.28948,3.18896 -8.28948,3.18898 -3.18895,8.28947 -3.18897,-8.28947 z"
         inkscape:connector-curvature="0"
         style="fill:#ffffff;fill-opacity:1;fill-rule:evenodd;stroke:none;stroke-width:0.171714;stroke-linecap:square;stroke-miterlimit:10" />
      <path
         id="path3772"
         d="M 51.909789,92.487163 62.16325,88.542646 66.107761,78.289194 70.052272,88.542646 80.30573,92.487163 70.052272,96.431675 66.107761,106.68513 62.16325,96.431675 Z"
         inkscape:connector-curvature="0"
         style="fill:#ffffff;fill-opacity:1;fill-rule:evenodd;stroke:none;stroke-width:0.212398;stroke-linecap:square;stroke-miterlimit:10" />
      <path
         id="path3774"
         d="m 94.18129,82.673119 11.54659,-4.441982 4.44198,-11.546595 4.44198,11.546595 11.54661,4.441982 -11.54661,4.441982 -4.44198,11.546595 -4.44198,-11.546595 z"
         inkscape:connector-curvature="0"
         style="fill:#ffffff;fill-opacity:0.2011;fill-rule:evenodd;stroke:none;stroke-width:0.212398;stroke-linecap:square;stroke-miterlimit:10" />
      <path
         id="path3776"
         d="m 133.86505,66.070248 8.77704,-3.372614 3.37653,-8.766861 3.37654,8.766861 8.77704,3.372614 -8.77704,3.372614 -3.37654,8.766859 -3.37653,-8.766859 z"
         inkscape:connector-curvature="0"
         style="fill:#ffffff;fill-opacity:0.2011;fill-rule:evenodd;stroke:none;stroke-width:0.212398;stroke-linecap:square;stroke-miterlimit:10" />
      <path
         id="path3778"
         d="m 123.5878,105.24093 10.25346,-3.94451 3.94451,-10.253461 3.94451,10.253461 10.25346,3.94451 -10.25346,3.94451 -3.94451,10.25346 -3.94451,-10.25346 z"
         inkscape:connector-curvature="0"
         style="fill:#ffffff;fill-opacity:0.2011;fill-rule:evenodd;stroke:none;stroke-width:0.212398;stroke-linecap:square;stroke-miterlimit:10" />
      <path
         id="path3780"
         d="m 34.120718,137.93505 11.546592,-4.44198 4.441985,-11.54659 4.441982,11.54659 11.546593,4.44198 -11.546593,4.44199 -4.441982,11.54659 -4.441985,-11.54659 z"
         inkscape:connector-curvature="0"
         style="fill:#ffffff;fill-opacity:1;fill-rule:evenodd;stroke:none;stroke-width:0.212398;stroke-linecap:square;stroke-miterlimit:10" />
      <path
         id="path3782"
         d="m 73.804472,121.33217 8.777041,-3.37261 3.376535,-8.76685 3.37653,8.76685 8.777039,3.37261 -8.777039,3.37262 -3.37653,8.76686 -3.376535,-8.76686 z"
         inkscape:connector-curvature="0"
         style="fill:#ffffff;fill-opacity:0.2011;fill-rule:evenodd;stroke:none;stroke-width:0.212398;stroke-linecap:square;stroke-miterlimit:10" />
      <path
         id="path3784"
         d="m 63.527221,160.50287 10.253458,-3.94451 3.944511,-10.25346 3.944518,10.25346 10.253452,3.94451 -10.253452,3.94451 -3.944518,10.25346 -3.944511,-10.25346 z"
         inkscape:connector-curvature="0"
         style="fill:#ffffff;fill-opacity:0.2011;fill-rule:evenodd;stroke:none;stroke-width:0.212398;stroke-linecap:square;stroke-miterlimit:10" />
      <path
         id="path3786"
         d="m 105.79872,156.49116 11.5466,-4.44199 4.44198,-11.54659 4.44198,11.54659 11.5466,4.44199 -11.5466,4.44198 -4.44198,11.54659 -4.44198,-11.54659 z"
         inkscape:connector-curvature="0"
         style="fill:#ffffff;fill-opacity:0.2011;fill-rule:evenodd;stroke:none;stroke-width:0.212398;stroke-linecap:square;stroke-miterlimit:10" />
      <path
         id="path3788"
         d="m 145.48247,139.88828 8.77704,-3.37261 3.37655,-8.76687 3.37653,8.76687 8.77703,3.37261 -8.77703,3.37261 -3.37653,8.76687 -3.37655,-8.76687 z"
         inkscape:connector-curvature="0"
         style="fill:#ffffff;fill-opacity:0.2011;fill-rule:evenodd;stroke:none;stroke-width:0.212398;stroke-linecap:square;stroke-miterlimit:10" />
      <path
         id="path3790"
         d="m 135.20523,179.05896 10.25346,-3.94451 3.94451,-10.25346 3.94451,10.25346 10.25346,3.94451 -10.25346,3.94452 -3.94451,10.25345 -3.94451,-10.25345 z"
         inkscape:connector-curvature="0"
         style="fill:#ffffff;fill-opacity:0.2011;fill-rule:evenodd;stroke:none;stroke-width:0.212398;stroke-linecap:square;stroke-miterlimit:10" />
      <path
         id="path3792"
         d="m 48.197168,214.48327 11.546597,-4.44198 4.441982,-11.5466 4.441982,11.5466 11.546595,4.44198 -11.546595,4.44199 -4.441982,11.54659 -4.441982,-11.54659 z"
         inkscape:connector-curvature="0"
         style="fill:#ffffff;fill-opacity:0.2011;fill-rule:evenodd;stroke:none;stroke-width:0.212398;stroke-linecap:square;stroke-miterlimit:10" />
      <path
         id="path3794"
         d="m 87.880922,197.88041 8.777047,-3.37263 3.376531,-8.76685 3.37653,8.76685 8.77705,3.37263 -8.77705,3.37261 -3.37653,8.76686 -3.376531,-8.76686 z"
         inkscape:connector-curvature="0"
         style="fill:#ffffff;fill-opacity:0.2011;fill-rule:evenodd;stroke:none;stroke-width:0.212398;stroke-linecap:square;stroke-miterlimit:10" />
      <path
         id="path3796"
         d="m 77.603673,237.05108 10.253458,-3.94451 3.944511,-10.25345 3.944512,10.25345 10.253456,3.94451 -10.253456,3.94452 -3.944512,10.25346 -3.944511,-10.25346 z"
         inkscape:connector-curvature="0"
         style="fill:#ffffff;fill-opacity:0.2011;fill-rule:evenodd;stroke:none;stroke-width:0.212398;stroke-linecap:square;stroke-miterlimit:10" />
      <path
         id="path3798"
         d="m 119.87516,227.23703 11.5466,-4.442 4.44198,-11.54657 4.44198,11.54657 11.5466,4.442 -11.5466,4.44199 -4.44198,11.54659 -4.44198,-11.54659 z"
         inkscape:connector-curvature="0"
         style="fill:#ffffff;fill-opacity:0.2011;fill-rule:evenodd;stroke:none;stroke-width:0.212398;stroke-linecap:square;stroke-miterlimit:10" />
      <path
         id="path3800"
         d="m 159.55893,210.63417 8.77704,-3.37261 3.37653,-8.76687 3.37653,8.76687 8.77704,3.37261 -8.77704,3.37263 -3.37653,8.76685 -3.37653,-8.76685 z"
         inkscape:connector-curvature="0"
         style="fill:#ffffff;fill-opacity:0.2011;fill-rule:evenodd;stroke:none;stroke-width:0.212398;stroke-linecap:square;stroke-miterlimit:10" />
      <path
         id="path3802"
         d="m 149.28167,249.80486 10.25346,-3.94451 3.94451,-10.25345 3.94451,10.25345 10.25346,3.94451 -10.25346,3.94451 -3.94451,10.25347 -3.94451,-10.25347 z"
         inkscape:connector-curvature="0"
         style="fill:#ffffff;fill-opacity:0.2011;fill-rule:evenodd;stroke:none;stroke-width:0.212398;stroke-linecap:square;stroke-miterlimit:10" />
      <path
         id="path3806"
         d="m 99.498353,265.8961 8.777037,-3.37261 3.37654,-8.76687 3.37653,8.76687 8.77704,3.37261 -8.77704,3.37263 -3.37653,8.76685 -3.37654,-8.76685 z"
         inkscape:connector-curvature="0"
         style="fill:#ffffff;fill-opacity:0.2011;fill-rule:evenodd;stroke:none;stroke-width:0.212398;stroke-linecap:square;stroke-miterlimit:10" />
      <path
         id="path3808"
         d="m 89.672144,302.11728 8.944105,-3.44081 3.440801,-8.94414 3.44081,8.94414 8.94413,3.44081 -8.94413,3.44082 -3.44081,8.94414 -3.440801,-8.94414 z"
         inkscape:connector-curvature="0"
         style="fill:#ffffff;fill-opacity:1;fill-rule:evenodd;stroke:none;stroke-width:0.185276;stroke-linecap:square;stroke-miterlimit:10" />
      <path
         id="path3810"
         d="m 146.11898,302.2159 11.54659,-4.442 4.44198,-11.54659 4.44198,11.54659 11.5466,4.442 -11.5466,4.44199 -4.44198,11.54659 -4.44198,-11.54659 z"
         inkscape:connector-curvature="0"
         style="fill:#ffffff;fill-opacity:0.2011;fill-rule:evenodd;stroke:none;stroke-width:0.212398;stroke-linecap:square;stroke-miterlimit:10" />
      <path
         id="path3812"
         d="m 171.17635,284.45221 8.77705,-3.37263 3.37652,-8.76684 3.37655,8.76684 8.77704,3.37263 -8.77704,3.37264 -3.37655,8.76684 -3.37652,-8.76684 z"
         inkscape:connector-curvature="0"
         style="fill:#ffffff;fill-opacity:0.2011;fill-rule:evenodd;stroke:none;stroke-width:0.212398;stroke-linecap:square;stroke-miterlimit:10" />
      <path
         id="path3814"
         d="m 182.3864,323.62291 10.25346,-3.94451 3.94451,-10.25345 3.94451,10.25345 10.25346,3.94451 -10.25346,3.94451 -3.94451,10.25347 -3.94451,-10.25347 z"
         inkscape:connector-curvature="0"
         style="fill:#ffffff;fill-opacity:1;fill-rule:evenodd;stroke:none;stroke-width:0.212398;stroke-linecap:square;stroke-miterlimit:10" />
      <path
         id="path3816"
         d="m 22.482797,179.21205 8.777041,-3.37261 3.376535,-8.76687 3.376533,8.76687 8.777041,3.37261 -8.777041,3.37262 -3.376533,8.76686 -3.376535,-8.76686 z"
         inkscape:connector-curvature="0"
         style="fill:#ffffff;fill-opacity:1;fill-rule:evenodd;stroke:none;stroke-width:0.212398;stroke-linecap:square;stroke-miterlimit:10" />
      <path
         id="path3818"
         d="m 41.557838,245.35881 8.777041,-3.37263 3.376533,-8.76685 3.376533,8.76685 8.777039,3.37263 -8.777039,3.37263 -3.376533,8.76685 -3.376533,-8.76685 z"
         inkscape:connector-curvature="0"
         style="fill:#ffffff;fill-opacity:1;fill-rule:evenodd;stroke:none;stroke-width:0.212398;stroke-linecap:square;stroke-miterlimit:10" />
      <path
         id="path3820"
         d="m 315.52366,203.49101 8.77704,-3.37262 3.37654,-8.76686 3.37654,8.76686 8.77704,3.37262 -8.77704,3.37261 -3.37654,8.76686 -3.37654,-8.76686 z"
         inkscape:connector-curvature="0"
         style="fill:#ffffff;fill-opacity:1;fill-rule:evenodd;stroke:none;stroke-width:0.212398;stroke-linecap:square;stroke-miterlimit:10" />
      <path
         id="path3822"
         d="m 304.75673,141.1487 8.77705,-3.37261 3.37654,-8.76685 3.37654,8.76685 8.77704,3.37261 -8.77704,3.37262 -3.37654,8.76686 -3.37654,-8.76686 z"
         inkscape:connector-curvature="0"
         style="fill:#ffffff;fill-opacity:1;fill-rule:evenodd;stroke:none;stroke-width:0.212398;stroke-linecap:square;stroke-miterlimit:10" />
      <path
         id="path3824"
         d="m 56.50294,182.51684 v 0 c 0,-3.52923 2.861005,-6.39024 6.390236,-6.39024 v 0 c 1.694792,0 3.320177,0.67326 4.518573,1.87165 1.198402,1.19841 1.871656,2.82378 1.871656,4.51859 v 0 c 0,3.52922 -2.860999,6.39023 -6.390229,6.39023 v 0 c -3.529231,0 -6.390236,-2.86101 -6.390236,-6.39023 z"
         inkscape:connector-curvature="0"
         style="fill:#ffffff;fill-opacity:0.2011;fill-rule:evenodd;stroke:none;stroke-width:0.212398;stroke-linecap:square;stroke-miterlimit:10" />
      <path
         id="path3826"
         d="m 253.07705,92.943227 v 0 c 0,-3.52923 2.86101,-6.390236 6.39024,-6.390236 v 0 c 1.69479,0 3.32017,0.673254 4.51856,1.871657 1.1984,1.198402 1.87166,2.823781 1.87166,4.518579 v 0 c 0,3.52923 -2.86101,6.39023 -6.39022,6.39023 v 0 c -3.52923,0 -6.39024,-2.861 -6.39024,-6.39023 z"
         inkscape:connector-curvature="0"
         style="fill:#ffffff;fill-opacity:0.2011;fill-rule:evenodd;stroke:none;stroke-width:0.212398;stroke-linecap:square;stroke-miterlimit:10" />
      <path
         id="path3828"
         d="m 30.057221,212.39421 v 0 c 0,-2.30925 1.872015,-4.18127 4.181266,-4.18127 v 0 c 1.10894,0 2.172457,0.44052 2.956597,1.22466 0.784139,0.78414 1.224664,1.84766 1.224664,2.95661 v 0 c 0,2.30925 -1.872016,4.18127 -4.181261,4.18127 v 0 c -2.309248,0 -4.181266,-1.87202 -4.181266,-4.18127 z"
         inkscape:connector-curvature="0"
         style="fill:#ffffff;fill-opacity:1;fill-rule:evenodd;stroke:none;stroke-width:0.212398;stroke-linecap:square;stroke-miterlimit:10" />
      <path
         id="path3830"
         d="m 312.72471,116.53932 v 0 c 0,-2.30925 1.87202,-4.18127 4.18127,-4.18127 v 0 c 1.10896,0 2.17248,0.44052 2.95661,1.22466 0.78413,0.78414 1.22465,1.84766 1.22465,2.95661 v 0 c 0,2.30923 -1.87202,4.18125 -4.18126,4.18125 v 0 c -2.30925,0 -4.18127,-1.87202 -4.18127,-4.18125 z"
         inkscape:connector-curvature="0"
         style="fill:#ffffff;fill-opacity:1;fill-rule:evenodd;stroke:none;stroke-width:0.212398;stroke-linecap:square;stroke-miterlimit:10" />
      <path
         id="path3832"
         d="m 317.11199,228.17381 v 0 c 0,-2.30924 1.87202,-4.18125 4.18127,-4.18125 v 0 c 1.10894,0 2.17246,0.44053 2.95661,1.22466 0.78413,0.78416 1.22465,1.84768 1.22465,2.95659 v 0 c 0,2.30926 -1.87202,4.18127 -4.18126,4.18127 v 0 c -2.30925,0 -4.18127,-1.87201 -4.18127,-4.18127 z"
         inkscape:connector-curvature="0"
         style="fill:#ffffff;fill-opacity:1;fill-rule:evenodd;stroke:none;stroke-width:0.212398;stroke-linecap:square;stroke-miterlimit:10" />
      <path
         id="path3834"
         d="m 38.61792,111.99695 v 0 c 0,-2.30925 1.872013,-4.18126 4.181261,-4.18126 v 0 c 1.10894,0 2.172463,0.44052 2.956602,1.22466 0.784138,0.78414 1.224663,1.84766 1.224663,2.9566 v 0 c 0,2.30924 -1.872015,4.18126 -4.181265,4.18126 v 0 c -2.309248,0 -4.181261,-1.87202 -4.181261,-4.18126 z"
         inkscape:connector-curvature="0"
         style="fill:#ffffff;fill-opacity:1;fill-rule:evenodd;stroke:none;stroke-width:0.212398;stroke-linecap:square;stroke-miterlimit:10" />
      <path
         id="path3836"
         d="m 173.90854,187.87873 6.80468,-2.61777 2.61777,-6.8047 2.61778,6.8047 6.80468,2.61777 -6.80468,2.61776 -2.61778,6.80469 -2.61777,-6.80469 z"
         inkscape:connector-curvature="0"
         style="fill:#000000;fill-opacity:0.1117;fill-rule:evenodd;stroke:none;stroke-width:0.212398;stroke-linecap:square;stroke-miterlimit:10" />
      <path
         id="path3838"
         d="m 104.02297,277.91092 6.8047,-2.61777 2.61777,-6.80469 2.61776,6.80469 6.8047,2.61777 -6.8047,2.61777 -2.61776,6.80469 -2.61777,-6.80469 z"
         inkscape:connector-curvature="0"
         style="fill:#000000;fill-opacity:0.1117;fill-rule:evenodd;stroke:none;stroke-width:0.212398;stroke-linecap:square;stroke-miterlimit:10" />
      <path
         id="path3840"
         style="fill:#ffffff;fill-opacity:1;fill-rule:evenodd;stroke:none;stroke-width:0.87597;stroke-linecap:square;stroke-miterlimit:10"
         d="m 682.66602,155.58984 c -291.07723,0 -527.04102,235.97968 -527.04102,527.07618 0,92.26382 23.71216,178.98681 65.36328,254.41796 v -15.4414 H 1152.543 c 36.551,-71.73327 57.166,-152.94677 57.166,-238.97656 0,-139.78946 -55.5277,-273.85316 -154.3672,-372.69922 C 956.50224,211.12071 822.44625,155.58984 682.66602,155.58984 Z M 410.42578,1134.0664 c 79.4593,48.0317 172.61983,75.6777 272.24024,75.6777 99.62054,0 192.78283,-27.6459 272.24218,-75.6777 z"
         transform="scale(0.26458333)" />
      <path
         id="path3844"
         d="M 70.621933,129.22411 H 292.05427 v 99.27486 H 70.621933 Z"
         inkscape:connector-curvature="0"
         style="fill:#000000;fill-opacity:0;fill-rule:evenodd;stroke:none;stroke-width:0.212398;stroke-linecap:square;stroke-miterlimit:10" />
      <path
         id="path3853"
         d="m 108.74162,113.2821 h 144.389 v 145.21875 h -144.389 z"
         inkscape:connector-curvature="0"
         style="fill:#000000;fill-opacity:0;fill-rule:evenodd;stroke:none;stroke-width:0.212398;stroke-linecap:square;stroke-miterlimit:10" />
      <path
         id="path3912"
         d="m 120.90614,80.752745 13.34407,-5.133806 5.13347,-13.344955 5.13347,13.344955 13.34407,5.133806 -13.34407,5.133813 -5.13347,13.344947 -5.13347,-13.344947 z"
         inkscape:connector-curvature="0"
         style="fill:#000000;fill-opacity:0.1117;fill-rule:evenodd;stroke:none;stroke-width:0.212398;stroke-linecap:square;stroke-miterlimit:10" />
      <path
         id="path3914"
         d="m 193.00899,116.20816 10.30434,-3.96435 3.96409,-10.30502 3.96409,10.30502 10.30433,3.96435 -10.30433,3.96434 -3.96409,10.30503 -3.96409,-10.30503 z"
         inkscape:connector-curvature="0"
         style="fill:#000000;fill-opacity:0.1117;fill-rule:evenodd;stroke:none;stroke-width:0.212398;stroke-linecap:square;stroke-miterlimit:10" />
      <path
         id="path3916"
         d="m 228.81162,90.001703 11.82968,-4.551195 4.55091,-11.830476 4.55087,11.830476 11.82969,4.551195 -11.82969,4.551189 -4.55087,11.830468 -4.55091,-11.830468 z"
         inkscape:connector-curvature="0"
         style="fill:#000000;fill-opacity:0.1117;fill-rule:evenodd;stroke:none;stroke-width:0.212398;stroke-linecap:square;stroke-miterlimit:10" />
      <path
         id="path3926"
         d="m 90.725116,91.589177 8.482702,-3.263501 3.263312,-8.483275 3.26331,8.483275 8.4827,3.263501 -8.4827,3.263522 -3.26331,8.483251 -3.263312,-8.483251 z"
         inkscape:connector-curvature="0"
         style="fill:#000000;fill-opacity:0.1117;fill-rule:evenodd;stroke:none;stroke-width:0.212398;stroke-linecap:square;stroke-miterlimit:10" />
      <path
         id="path3928"
         d="m 264.23283,106.4468 v 0 c 0,-4.07887 3.30636,-7.38543 7.38494,-7.38543 v 0 c 1.95861,0 3.83702,0.778113 5.22196,2.16315 1.38495,1.38503 2.16298,3.26353 2.16298,5.22228 v 0 c 0,4.07886 -3.30634,7.38542 -7.38494,7.38542 v 0 c -4.07858,0 -7.38494,-3.30656 -7.38494,-7.38542 z"
         inkscape:connector-curvature="0"
         style="fill:#000000;fill-opacity:0.1117;fill-rule:evenodd;stroke:none;stroke-width:0.212398;stroke-linecap:square;stroke-miterlimit:10" />
      <path
         id="path3932"
         d="m 119.00886,102.72856 v 0 c 0,-2.66888 2.16342,-4.832435 4.83213,-4.832435 v 0 c 1.28156,0 2.51063,0.509125 3.41682,1.415385 0.9062,0.90626 1.41529,2.13541 1.41529,3.41705 v 0 c 0,2.66889 -2.1634,4.83244 -4.83211,4.83244 v 0 c -2.66871,0 -4.83213,-2.16355 -4.83213,-4.83244 z"
         inkscape:connector-curvature="0"
         style="fill:#000000;fill-opacity:0.1117;fill-rule:evenodd;stroke:none;stroke-width:0.212398;stroke-linecap:square;stroke-miterlimit:10" />
      <path
         id="path3934"
         d="m 163.3908,101.39344 v 0 c 0,-4.078853 3.30634,-7.385417 7.38494,-7.385417 v 0 c 1.9586,0 3.83699,0.778106 5.22193,2.163141 1.38495,1.385037 2.163,3.263551 2.163,5.222276 v 0 c 0,4.07887 -3.30635,7.38544 -7.38493,7.38544 v 0 c -4.0786,0 -7.38494,-3.30657 -7.38494,-7.38544 z"
         inkscape:connector-curvature="0"
         style="fill:#000000;fill-opacity:0.1117;fill-rule:evenodd;stroke:none;stroke-width:0.212398;stroke-linecap:square;stroke-miterlimit:10" />
      <path
         id="path3938"
         d="m 94.136351,154.23503 v 0 c 0,-2.66889 2.163413,-4.83245 4.832119,-4.83245 v 0 c 1.28156,0 2.51063,0.50914 3.41683,1.4154 0.9062,0.90626 1.41529,2.1354 1.41529,3.41705 v 0 c 0,2.66888 -2.16341,4.83244 -4.83212,4.83244 v 0 c -2.668706,0 -4.832119,-2.16356 -4.832119,-4.83244 z"
         inkscape:connector-curvature="0"
         style="fill:#000000;fill-opacity:0.1117;fill-rule:evenodd;stroke:none;stroke-width:0.212398;stroke-linecap:square;stroke-miterlimit:10" />
      <path
         id="path3942"
         d="m 80.919753,71.944337 v 0 c 0,-2.309144 1.871928,-4.181074 4.181074,-4.181074 v 0 c 1.108887,0 2.172357,0.44051 2.956458,1.22461 0.784106,0.7841 1.22461,1.847575 1.22461,2.956464 v 0 c 0,2.30914 -1.87193,4.181068 -4.181068,4.181068 v 0 c -2.309146,0 -4.181074,-1.871928 -4.181074,-4.181068 z"
         inkscape:connector-curvature="0"
         style="fill:#ffffff;fill-opacity:1;fill-rule:evenodd;stroke:none;stroke-width:0.212398;stroke-linecap:square;stroke-miterlimit:10" />
      <path
         id="path3944"
         d="m 204.05911,36.338568 v 0 c 0,-3.090555 2.50539,-5.595947 5.59594,-5.595947 v 0 c 1.48414,0 2.90748,0.589573 3.95692,1.639017 1.04944,1.049443 1.63902,2.472792 1.63902,3.95693 v 0 c 0,3.090551 -2.50539,5.595942 -5.59594,5.595942 v 0 c -3.09055,0 -5.59594,-2.505391 -5.59594,-5.595942 z"
         inkscape:connector-curvature="0"
         style="fill:#ffffff;fill-opacity:1;fill-rule:evenodd;stroke:none;stroke-width:0.212398;stroke-linecap:square;stroke-miterlimit:10" />
      <path
         id="path3946"
         d="m 105.26985,51.276797 10.25414,-3.944775 3.94477,-10.254138 3.94477,10.254138 10.25415,3.944775 -10.25415,3.944772 -3.94477,10.254142 -3.94477,-10.254142 z"
         inkscape:connector-curvature="0"
         style="fill:#ffffff;fill-opacity:1;fill-rule:evenodd;stroke:none;stroke-width:0.212398;stroke-linecap:square;stroke-miterlimit:10" />
      <path
         id="path3948"
         d="m 221.60399,321.27625 v 0 c 0,-3.09057 2.50539,-5.59593 5.59593,-5.59593 v 0 c 1.48416,0 2.9075,0.58955 3.95694,1.63899 1.04944,1.04946 1.63902,2.4728 1.63902,3.95694 v 0 c 0,3.09056 -2.50539,5.59593 -5.59596,5.59593 v 0 c -3.09054,0 -5.59593,-2.50537 -5.59593,-5.59593 z"
         inkscape:connector-curvature="0"
         style="fill:#ffffff;fill-opacity:1;fill-rule:evenodd;stroke:none;stroke-width:0.212398;stroke-linecap:square;stroke-miterlimit:10" />
      <path
         id="path3950"
         d="m 159.09294,331.05303 v 0 c 0,-2.30913 1.87192,-4.18104 4.18107,-4.18104 v 0 c 1.10888,0 2.17236,0.44047 2.95646,1.22458 0.7841,0.78411 1.22461,1.84759 1.22461,2.95646 v 0 c 0,2.30915 -1.87193,4.18108 -4.18107,4.18108 v 0 c -2.30915,0 -4.18107,-1.87193 -4.18107,-4.18108 z"
         inkscape:connector-curvature="0"
         style="fill:#ffffff;fill-opacity:1;fill-rule:evenodd;stroke:none;stroke-width:0.212398;stroke-linecap:square;stroke-miterlimit:10" />
      <path
         id="path3952"
         d="m 327.23494,169.96087 v 0 c 0,-2.30913 1.87191,-4.18106 4.18108,-4.18106 v 0 c 1.10889,0 2.17235,0.4405 2.95646,1.2246 0.78409,0.78411 1.2246,1.84758 1.2246,2.95646 v 0 c 0,2.30915 -1.87193,4.18108 -4.18106,4.18108 v 0 c -2.30917,0 -4.18108,-1.87193 -4.18108,-4.18108 z"
         inkscape:connector-curvature="0"
         style="fill:#ffffff;fill-opacity:1;fill-rule:evenodd;stroke:none;stroke-width:0.212398;stroke-linecap:square;stroke-miterlimit:10" />
      <path
         id="path3956"
         d="m 173.60382,67.453127 v 0 c 0,-2.669369 2.16395,-4.833313 4.83332,-4.833313 v 0 c 1.28187,0 2.51125,0.509222 3.41766,1.415643 0.90643,0.906421 1.41566,2.135793 1.41566,3.41767 v 0 c 0,2.669369 -2.16395,4.83332 -4.83332,4.83332 v 0 c -2.66937,0 -4.83332,-2.163951 -4.83332,-4.83332 z"
         inkscape:connector-curvature="0"
         style="fill:#000000;fill-opacity:0.1117;fill-rule:evenodd;stroke:none;stroke-width:0.212398;stroke-linecap:square;stroke-miterlimit:10" />
      <path
         id="path3958"
         d="m 234.48468,117.17375 v 0 c 0,-1.67183 1.35525,-3.0271 3.0271,-3.0271 v 0 c 0.8028,0 1.57279,0.31894 2.14046,0.88662 0.56768,0.5677 0.88662,1.33764 0.88662,2.14048 v 0 c 0,1.67181 -1.35529,3.02708 -3.02708,3.02708 v 0 c -1.67185,0 -3.0271,-1.35527 -3.0271,-3.02708 z"
         inkscape:connector-curvature="0"
         style="fill:#000000;fill-opacity:0.1117;fill-rule:evenodd;stroke:none;stroke-width:0.212398;stroke-linecap:square;stroke-miterlimit:10" />
      <path
         id="path3960"
         d="m 197.06478,71.25616 8.48351,-3.263615 3.26362,-8.483516 3.26361,8.483516 8.48354,3.263615 -8.48354,3.263615 -3.26361,8.483522 -3.26362,-8.483522 z"
         inkscape:connector-curvature="0"
         style="fill:#000000;fill-opacity:0.1117;fill-rule:evenodd;stroke:none;stroke-width:0.212398;stroke-linecap:square;stroke-miterlimit:10" />
      <path
         id="path436"
         d="m 132.83027,125.70664 11.97356,-4.60652 4.60625,-11.97437 4.60624,11.97437 11.97356,4.60652 -11.97356,4.60654 -4.60624,11.97433 -4.60625,-11.97433 z"
         inkscape:connector-curvature="0"
         style="fill:#000000;fill-opacity:0.1117;fill-rule:evenodd;stroke:none;stroke-width:0.299806;stroke-linecap:square;stroke-miterlimit:10" />
      <path
         style="fill:#000000;fill-opacity:0.1117;fill-rule:evenodd;stroke:none;stroke-width:0.212398;stroke-linecap:square;stroke-miterlimit:10"
         inkscape:connector-curvature="0"
         d="m 84.428202,194.00225 8.482699,-3.2635 3.26331,-8.48328 3.263309,8.48328 8.4827,3.2635 -8.4827,3.26352 -3.263309,8.48326 -3.26331,-8.48326 z"
         id="path438" />
      <path
         id="path440"
         d="m 257.24732,171.44311 8.48271,-3.2635 3.2633,-8.48328 3.26331,8.48328 8.48271,3.2635 -8.48271,3.26352 -3.26331,8.48326 -3.2633,-8.48326 z"
         inkscape:connector-curvature="0"
         style="fill:#000000;fill-opacity:0.1117;fill-rule:evenodd;stroke:none;stroke-width:0.212398;stroke-linecap:square;stroke-miterlimit:10" />
      <path
         style="fill:#000000;fill-opacity:0.1117;fill-rule:evenodd;stroke:none;stroke-width:0.212398;stroke-linecap:square;stroke-miterlimit:10"
         inkscape:connector-curvature="0"
         d="m 241.14422,199.27149 v 0 c 0,-2.66888 2.16342,-4.83245 4.83212,-4.83245 v 0 c 1.28155,0 2.51061,0.50914 3.41683,1.4154 0.9062,0.90624 1.4153,2.13539 1.4153,3.41705 v 0 c 0,2.66887 -2.16343,4.83242 -4.83213,4.83242 v 0 c -2.6687,0 -4.83212,-2.16355 -4.83212,-4.83242 z"
         id="path442" />
      <path
         style="fill:#000000;fill-opacity:0.1117;fill-rule:evenodd;stroke:none;stroke-width:0.141574;stroke-linecap:square;stroke-miterlimit:10"
         inkscape:connector-curvature="0"
         d="m 183.23424,126.88122 v 0 c 0,-1.77893 1.44203,-3.22107 3.22086,-3.22107 v 0 c 0.85422,0 1.67345,0.33937 2.27749,0.94344 0.60403,0.60405 0.94337,1.42335 0.94337,2.27763 v 0 c 0,1.77894 -1.44203,3.22106 -3.22086,3.22106 v 0 c -1.77883,0 -3.22086,-1.44212 -3.22086,-3.22106 z"
         id="path446" />
      <path
         id="path450"
         d="m 66.713621,182.35213 v 0 c 0,-1.77894 1.442034,-3.22108 3.220861,-3.22108 v 0 c 0.854218,0 1.673453,0.33937 2.277495,0.94344 0.604027,0.60406 0.943367,1.42335 0.943367,2.27764 v 0 c 0,1.77894 -1.442034,3.22106 -3.220862,3.22106 v 0 c -1.778827,0 -3.220861,-1.44212 -3.220861,-3.22106 z"
         inkscape:connector-curvature="0"
         style="fill:#000000;fill-opacity:0.1117;fill-rule:evenodd;stroke:none;stroke-width:0.141574;stroke-linecap:square;stroke-miterlimit:10" />
    </g>
    <path
       id="path3716"
       d="M 0,-3.2267133e-6 H 361.24444 V 361.24443 H 0 Z"
       inkscape:connector-curvature="0"
       style="fill:#000000;fill-opacity:0;fill-rule:evenodd;stroke:none;stroke-width:0.212398;stroke-linecap:square;stroke-miterlimit:10" />
    <g
       style="fill:none;stroke:none;stroke-linecap:square;stroke-miterlimit:10"
       id="g3851"
       transform="matrix(0.53502477,0,0,0.53501203,43.540759,55.244487)">
      <clipPath
         id="p.1">
        <path
           id="path3846"
           d="M 50.61667,138.27654 H 464.48972 V 323.83283 H 50.61667 Z"
           inkscape:connector-curvature="0"
           style="clip-rule:evenodd" />
      </clipPath>
    </g>
    <g
       style="fill:none;stroke:none;stroke-linecap:square;stroke-miterlimit:10"
       id="g3860"
       transform="matrix(0.53501904,0,0,0.53501486,43.535549,55.252707)">
      <clipPath
         id="p.2">
        <path
           id="path3855"
           d="M 121.87618,108.46317 H 391.75257 V 379.89251 H 121.87617 Z"
           inkscape:connector-curvature="0"
           style="clip-rule:evenodd" />
      </clipPath>
    </g>
  </g>
  <g
     inkscape:groupmode="layer"
     id="layer8"
     inkscape:label="Tail"
     style="display:inline">
    <g
       inkscape:groupmode="layer"
       id="layer1"
       inkscape:label="Tail Up"
       style="display:inline">
      <path
         sodipodi:nodetypes="csscssssszzcsc"
         inkscape:connector-curvature="0"
         id="path5110-1"
         d="m 199.4952,220.47897 c 0,0 7.62184,0.64447 15.41726,-2.50687 5.89115,-2.38153 10.77636,-7.0567 11.65695,-11.53161 0.83843,-4.26066 -0.37603,-8.89939 -0.37603,-8.89939 0,0 -14.03848,-1.37878 -18.67619,-14.28917 -3.55674,-9.90119 -4.40382,-25.94453 7.52061,-38.48047 9.7768,-10.27817 21.29186,-17.54226 38.98185,-13.91313 21.05705,4.31989 32.50251,29.71458 32.71467,42.86749 0.21242,13.16891 -0.89397,31.17234 -19.42826,45.7504 -19.79794,15.57199 -39.66176,17.54753 -53.39635,17.92413 -13.73459,0.37659 -23.87571,-4.8249 -28.70367,-7.14458 -4.82796,-2.31968 -11.28092,-6.51787 -10.65421,-9.65146 0.62672,-3.13358 3.63497,-5.01374 7.39527,-3.88565 3.76031,1.12809 9.02474,3.25893 17.5481,3.76031 z"
         style="fill:none;fill-opacity:1;stroke:none;stroke-width:0.264583px;stroke-linecap:butt;stroke-linejoin:miter;stroke-opacity:1" />
      <g
         id="g1161"
         transform="rotate(18.437234,483.68475,236.73262)"
         style="display:inline;fill:#0000ff">
        <path
           id="path179"
           style="color:#000000;font-style:normal;font-variant:normal;font-weight:normal;font-stretch:normal;font-size:medium;line-height:normal;font-family:sans-serif;font-variant-ligatures:normal;font-variant-position:normal;font-variant-caps:normal;font-variant-numeric:normal;font-variant-alternates:normal;font-variant-east-asian:normal;font-feature-settings:normal;font-variation-settings:normal;text-indent:0;text-align:start;text-decoration:none;text-decoration-line:none;text-decoration-style:solid;text-decoration-color:#000000;letter-spacing:normal;word-spacing:normal;text-transform:none;writing-mode:lr-tb;direction:ltr;text-orientation:mixed;dominant-baseline:auto;baseline-shift:baseline;text-anchor:start;white-space:normal;shape-padding:0;shape-margin:0;inline-size:0;clip-rule:nonzero;display:inline;overflow:visible;visibility:visible;isolation:auto;mix-blend-mode:normal;color-interpolation:sRGB;color-interpolation-filters:linearRGB;solid-color:#000000;solid-opacity:1;vector-effect:none;fill:#ffffff;fill-opacity:1;fill-rule:nonzero;stroke:none;stroke-width:16.126;stroke-linecap:butt;stroke-linejoin:miter;stroke-miterlimit:4;stroke-dasharray:none;stroke-dashoffset:0;stroke-opacity:1;color-rendering:auto;image-rendering:auto;shape-rendering:auto;text-rendering:auto;enable-background:accumulate;stop-color:#000000"
           d="m 931.36523,483.56445 c -45.21111,5.49436 -73.96017,24.47814 -102.94335,53.07422 -50.97785,50.29702 -47.56092,115.04584 -34.49805,154.84571 3.02213,9.2078 7.14844,17.01788 11.90039,23.67578 8.89497,-4.84607 17.78948,-9.68985 26.68164,-14.54102 1.18589,-0.64739 2.37272,-1.29409 3.55859,-1.94141 -2.04541,13.06669 -4.08495,26.13398 -6.12695,39.20118 13.52191,8.62528 26.78813,12.27115 33.52539,13.71093 0.84502,5.22103 2.11133,15.00488 -0.19336,25.21289 -2.78602,12.341 -19.67697,28.92327 -40.19922,36.56446 -22.90824,8.52972 -45.53072,8.01479 -52.44726,7.5664 l -21.26641,-3.39523 c 5.66294,7.00178 16.85719,33.82993 22.81582,35.25011 0,0 43.80163,7.04544 82.60293,-11.8998 18.45561,-9.01119 34.97028,-19.7835 47.19336,-35.3457 12.22308,-15.5622 19.76641,-35.76669 20.89453,-62.03711 2.25983,-52.62447 -22.99381,-83.58149 -42.2832,-94.38672 -10.35179,-5.79856 -21.81958,-5.21197 -30.98438,-1.41797 -9.16476,3.79401 -16.53123,10.42852 -20.92968,18.18945 -2.39715,4.22976 -4.60434,9.51521 -6.11329,15.38086 -9.87238,-31.01602 -7.26376,-85.8143 27.25977,-121.19336 26.24062,-26.89097 58.00681,-44.19291 92.62109,-44.87695 2.28267,-0.045 4.5608,-0.0427 6.83594,0.0117 34.0497,0.82223 67.35177,12.52587 103.86327,64.32617 17.5492,28.62129 24.2706,64.48394 24.416,83.58594 0.2937,38.52988 -4.3927,101.6469 -68.998,149.62305 -71.48627,53.08601 -138.22183,59.22112 -188.48244,59.20507 -7.01839,-0.002 -13.49647,-0.31899 -19.52344,-0.875 l -15.73047,-1.45117 18.97852,32.0293 4.27344,0.25586 c 3.89659,0.23168 7.88959,0.3676 11.99023,0.36914 52.48952,0.0151 130.15574,-5.59268 208.42386,-63.71484 73.996,-54.94982 81.569,-126.77543 81.4531,-177.30079 -0.071,-30.98699 -10.6187,-68.29544 -31.3906,-101.09179 -20.7719,-32.79639 -52.0962,-61.12593 -93.72855,-72.07422 -19.42193,-5.02456 -34.74887,-6.76134 -53.44922,-4.53514 z"
           transform="matrix(0.25100244,-0.08367861,0.08367861,0.25100244,-50.043178,165.12417)"
           sodipodi:nodetypes="cssccccccscccsssssscsscccscsccccssscc" />
      </g>
    </g>
  </g>
  <g
     inkscape:groupmode="layer"
     id="layer5"
     inkscape:label="Body"
     style="display:inline">
    <g
       inkscape:groupmode="layer"
       id="layer10"
       inkscape:label="Arms">
      <path
         inkscape:connector-curvature="0"
         id="leftarmmaterial"
         d="m 190.75315,189.6363 c -4.72229,0.0164 -9.77831,1.82762 -13.39556,4.87464 -3.0415,2.56202 -3.27371,6.32106 -3.27371,6.32106 0,0 -0.39993,3.02313 1.91927,5.86941 2.48326,3.04764 6.99789,5.19222 12.07729,3.72483 4.62791,-1.806 8.69142,-3.38642 14.89958,-3.4993 6.54678,0.4515 11.05906,0.84025 12.07803,-2.25722 0.83843,-2.54867 -1.58028,-6.99834 -7.67557,-10.49749 -6.09528,-3.49915 -9.26106,-4.1738 -15.68985,-4.51526 -0.31133,-0.015 -0.62466,-0.0218 -0.93948,-0.0207 z"
         style="display:inline;fill:none;fill-opacity:1;stroke:none;stroke-width:0.264583px;stroke-linecap:butt;stroke-linejoin:miter;stroke-opacity:1"
         inkscape:label="#path5075" />
      <path
         id="path5064"
         style="display:inline;fill:#ffffff;fill-opacity:1;stroke:none;stroke-width:0.99999899999999997px;stroke-linecap:butt;stroke-linejoin:miter;stroke-opacity:1"
         d="M 720.95703 716.73633 C 717.66581 716.74776 714.33109 716.9936 710.99609 717.45312 L 691.1543 735.64062 C 691.46786 735.48082 691.76757 735.31934 692.08594 735.16016 C 698.67184 731.8672 709.36033 728.27171 718.85938 728.21094 C 732.7426 728.12212 747.09846 728.57992 761.19727 734.73242 C 767.93869 737.67434 773.89589 740.55699 779.10156 743.37305 L 776.50195 729.86133 C 757.96754 720.12112 746.0971 717.96115 724.50781 716.81445 C 723.33113 716.75776 722.1469 716.73217 720.95703 716.73633 z M 757 769.30469 C 751.99359 769.36477 746.81408 769.83372 741.57227 770.99414 C 731.26998 773.27481 723.2662 775.97627 716.22656 778.19141 L 725.05469 789.96484 C 737.43497 785.62008 750.17369 782.39494 767.16797 782.08594 C 776.97182 782.76206 785.54323 783.38675 792.58984 783.18359 L 786.6875 771.91406 C 778.50553 771.07599 768.2037 769.17024 757 769.30469 z "
         transform="scale(0.26458333)" />
      <g
         style="display:inline"
         transform="translate(16.600358,-16.511431)"
         id="g5101">
        <path
           id="rightarmmaterial"
           d="m 137.38037,216.09307 c -0.45151,-0.11287 -5.30516,-3.38627 -13.31934,-1.91888 -8.01417,1.46738 -15.08018,4.99699 -17.64246,6.67489 -2.56229,1.67791 -7.980319,6.64444 -7.077309,11.61097 0.902999,4.96653 4.515019,9.36868 10.045939,7.44979 5.5309,-1.91888 7.67554,-6.54679 7.67554,-6.54679 0,0 1.91889,-1.80601 7.11117,-1.91888 5.19228,-0.11288 11.62619,-1.80601 13.54508,-6.32104 1.91889,-4.51503 1.35451,-6.20816 -0.33862,-9.03006 z"
           style="fill:none;fill-opacity:1;stroke:none;stroke-width:0.264583px;stroke-linecap:butt;stroke-linejoin:miter;stroke-opacity:1"
           inkscape:connector-curvature="0" />
        <path
           id="path5081"
           style="fill:#ffffff;fill-opacity:1;stroke:none;stroke-width:0.99999899999999997px;stroke-linecap:butt;stroke-linejoin:miter;stroke-opacity:1"
           d="M 491.73047 758.92188 C 479.50892 763.8905 469.95204 769.02727 464.95312 772.30078 C 462.37783 773.98721 459.0374 776.57269 455.58789 779.7832 L 462.85938 787.05469 C 465.84912 784.28272 468.71295 782.0462 470.63867 780.78516 C 475.79021 777.41167 489.04549 770.50015 505.57227 764.68945 L 491.73047 758.92188 z M 546.50195 798.6582 C 541.48036 799.66626 536.25473 800.23423 531.39258 800.33984 C 520.31807 800.5806 512.16836 802.65781 506.58203 804.96094 C 500.99574 807.26411 497.11133 810.61523 497.11133 810.61523 A 11.159643 11.159643 0 0 0 494.63867 814.04688 C 494.63867 814.04688 494.07998 815.24796 492.87109 817.06445 L 496.45312 820.64844 L 497.12695 830.75195 C 502.73746 824.82874 505.18359 819.59766 505.18359 819.59766 C 505.18359 819.59766 512.43618 812.77038 532.06055 812.34375 C 536.21025 812.25354 540.56999 811.87769 544.93359 811.20898 L 546.50195 798.6582 z "
           transform="matrix(0.26458333,0,0,0.26458333,-16.600358,16.511431)" />
      </g>
    </g>
    <g
       inkscape:groupmode="layer"
       id="layer18"
       inkscape:label="Right Hand">
      <g
         inkscape:groupmode="layer"
         id="layer21"
         inkscape:label="Umbrella"
         style="display:none">
        <path
           style="fill:#434248;fill-opacity:1;stroke:#000000;stroke-width:2.82222;stroke-linecap:butt;stroke-linejoin:miter;stroke-miterlimit:4;stroke-dasharray:none;stroke-opacity:1"
           d="m 118.67672,217.52521 c 0.45634,0.59055 -6.05785,0.35126 -28.047795,-25.88871 -9.872409,-11.78046 -28.331829,-35.6969 -22.610778,-40.18641 5.656014,-4.43847 19.965656,12.08588 34.640193,28.81935 22.62911,25.80412 22.50875,35.20876 20.63749,33.3375 z"
           id="umbrella-material"
           inkscape:connector-curvature="0"
           sodipodi:nodetypes="cssscc"
           inkscape:label="#path240" />
        <path
           style="fill:#1f1f1f;fill-opacity:1;stroke:#000000;stroke-width:2.46944;stroke-linecap:butt;stroke-linejoin:miter;stroke-miterlimit:4;stroke-dasharray:none;stroke-opacity:1;paint-order:stroke markers fill"
           d="m 119.84117,218.69549 c 2.66117,3.20112 9.79605,9.74509 10.98719,8.50042 1.33245,-1.39233 -3.62049,-9.68111 -6.5531,-13.10619 z"
           id="path4740"
           inkscape:connector-curvature="0"
           sodipodi:nodetypes="cscc" />
        <path
           style="fill:#000000;fill-opacity:1;stroke:none;stroke-width:0.264583px;stroke-linecap:butt;stroke-linejoin:miter;stroke-opacity:1"
           d="m 70.043298,157.12315 c 0,0 13.733981,22.4894 22.146043,31.75983 8.412069,9.27044 26.094559,25.40787 26.094559,25.40787 0,0 -17.33914,-18.02585 -24.549485,-26.95294 -7.21034,-8.92709 -21.802693,-30.04308 -23.691117,-30.21476 z"
           id="path4742"
           inkscape:connector-curvature="0" />
        <path
           inkscape:connector-curvature="0"
           id="path4744"
           d="m 120.45783,211.27594 c 0,0 -14.51073,-21.84995 -22.272557,-31.67124 -8.792335,-11.12523 -26.195708,-25.30358 -26.195708,-25.30358 0,0 17.410908,17.95654 24.65681,26.8548 7.245895,8.89826 21.922365,29.95587 23.811455,30.12002 z"
           style="fill:#000000;fill-opacity:1;stroke:none;stroke-width:0.264583px;stroke-linecap:butt;stroke-linejoin:miter;stroke-opacity:1"
           sodipodi:nodetypes="cscsc" />
        <path
           style="display:inline;fill:#000000;fill-opacity:1;stroke:#000000;stroke-width:0.264583px;stroke-linecap:butt;stroke-linejoin:miter;stroke-opacity:1"
           d="m 63.176308,146.651 3.60517,6.69531 3.26182,-3.09014 z"
           id="path4736"
           inkscape:connector-curvature="0" />
      </g>
      <g
         inkscape:groupmode="layer"
         id="layer7"
         inkscape:label="Controller"
         style="display:inline">
        <g
           transform="matrix(0.21239835,0,0,0.21239835,-4.0629642,3.2506816)"
           style="display:inline;fill:none;stroke:none;stroke-linecap:square;stroke-miterlimit:10"
           id="g5781">
          <path
             id="controllerbutton10"
             d="m 321.43295,855.7548 v 0 c -7.62735,-7.62787 -7.62735,-19.99512 0,-27.62299 l 55.24063,-55.24426 v 0 c 3.66278,-3.66302 8.63061,-5.72088 13.81058,-5.72088 5.17996,0 10.14776,2.05786 13.81057,5.72088 L 633.45397,1002.062 c 7.62738,7.6279 7.62738,19.995 0,27.6229 l -55.2406,55.2443 c -7.62738,7.6279 -19.99377,7.6279 -27.62115,0 z"
             inkscape:connector-curvature="0"
             style="fill:none;fill-opacity:1;fill-rule:evenodd;stroke:#ffffff;stroke-width:9.96555;stroke-miterlimit:10;stroke-dasharray:none;stroke-opacity:1;paint-order:markers fill stroke"
             inkscape:label="#path3870" />
          <path
             id="controllerbutton7"
             d="m 486.1866,981.3623 v 0 c -12.06943,-12.07019 -12.06943,-31.63995 0,-43.71014 v 0 c 5.79596,-5.79633 13.65695,-9.05268 21.85367,-9.05268 8.19671,0 16.05768,3.25635 21.85364,9.05268 v 0 c 12.06945,12.07019 12.06945,31.63995 0,43.71014 v 0 c -12.0694,12.07025 -31.63785,12.07025 -43.70731,0 z"
             inkscape:connector-curvature="0"
             style="fill:#ffffff;fill-rule:evenodd"
             inkscape:label="#path3874" />
          <path
             id="controllerbutton1"
             d="m 339.3153,845.05475 v 0 c -1.75085,-1.75098 -1.75085,-4.58984 0,-6.34082 L 355.73913,822.289 c 0.84079,-0.84082 1.98114,-1.31323 3.17019,-1.31323 1.18906,0 2.32941,0.47241 3.1702,1.31323 l 12.68039,12.68122 c 1.75085,1.75097 1.75085,4.58984 0,6.34082 l -16.42383,16.42492 c -1.75085,1.75098 -4.58954,1.75098 -6.34039,0 z"
             inkscape:connector-curvature="0"
             style="fill:#ffffff;fill-opacity:1;fill-rule:evenodd"
             inkscape:label="#path3878" />
          <path
             id="controllerbutton3"
             d="m 369.2039,874.94525 v 0 c -1.75085,-1.75092 -1.75085,-4.58984 0,-6.34076 l 16.42383,-16.42493 c 0.84079,-0.84088 1.98114,-1.31323 3.17019,-1.31323 1.18906,0 2.32941,0.47235 3.1702,1.31323 l 12.68039,12.68122 c 1.75085,1.75097 1.75085,4.58984 0,6.34082 l -16.42383,16.42492 c -1.75085,1.75092 -4.58954,1.75092 -6.34039,0 z"
             inkscape:connector-curvature="0"
             style="fill:#ffffff;fill-opacity:1;fill-rule:evenodd"
             inkscape:label="#path3886" />
          <path
             id="controllerbutton4"
             d="m 401.62183,842.5252 v 0 c -1.75085,-1.75098 -1.75085,-4.58984 0,-6.34082 l 16.42383,-16.42493 c 0.84079,-0.84082 1.98114,-1.31323 3.17019,-1.31323 1.18906,0 2.32941,0.47241 3.1702,1.31323 l 12.68039,12.68122 c 1.75085,1.75097 1.75085,4.58984 0,6.34082 l -16.42383,16.42492 c -1.75085,1.75098 -4.58954,1.75098 -6.34039,0 z"
             inkscape:connector-curvature="0"
             style="fill:#ffffff;fill-rule:evenodd"
             inkscape:label="#path3890" />
          <path
             id="controllerbutton2"
             d="m 371.73325,812.63464 v 0 c -1.75085,-1.75098 -1.75085,-4.58984 0,-6.34082 l 16.42383,-16.42493 c 0.84079,-0.84082 1.98114,-1.31317 3.17019,-1.31317 1.18906,0 2.32941,0.47235 3.1702,1.31317 l 12.68039,12.68128 c 1.75085,1.75091 1.75085,4.58978 0,6.34076 l -16.42383,16.42492 c -1.75085,1.75098 -4.58954,1.75098 -6.34039,0 z"
             inkscape:connector-curvature="0"
             style="fill:#ffffff;fill-opacity:1;fill-rule:evenodd"
             inkscape:label="#path3882" />
          <path
             id="controllerbutton5"
             d="m 399.09247,904.8358 v 0 c -1.75085,-1.75098 -1.75085,-4.58984 0,-6.34076 l 48.79962,-48.80286 c 0.84079,-0.84088 1.98114,-1.31323 3.1702,-1.31323 1.18905,0 2.3294,0.47235 3.17019,1.31323 l 12.68036,12.68122 c 1.75086,1.75097 1.75086,4.58984 0,6.34082 l -48.79959,48.80279 c -1.75085,1.75098 -4.58954,1.75098 -6.34039,0 z"
             inkscape:connector-curvature="0"
             style="fill:#ffffff;fill-opacity:1;fill-rule:evenodd"
             inkscape:label="#path3894" />
          <path
             id="controllerbutton6"
             d="m 428.98105,934.7264 v 0 c -1.75085,-1.75098 -1.75085,-4.58984 0,-6.34082 l 48.79962,-48.8028 c 0.84079,-0.84088 1.98114,-1.31323 3.1702,-1.31323 1.18905,0 2.3294,0.47235 3.17019,1.31323 l 12.68036,12.68122 c 1.75086,1.75097 1.75086,4.58984 0,6.34076 l -48.79959,48.80285 c -1.75085,1.75098 -4.58954,1.75098 -6.34039,0 z"
             inkscape:connector-curvature="0"
             style="fill:#ffffff;fill-opacity:1;fill-rule:evenodd"
             inkscape:label="#path3898" />
          <path
             id="controllerbutton8"
             d="m 518.6468,1024.3981 v 0 c -1.75085,-1.751 -1.75085,-4.5898 0,-6.3408 l 48.79962,-48.80288 c 0.84076,-0.84082 1.98114,-1.31323 3.17017,-1.31323 1.18908,0 2.3294,0.47241 3.17022,1.31323 l 12.68036,12.68122 c 1.75086,1.75097 1.75086,4.58984 0,6.34082 l -48.79962,48.80284 c -1.75085,1.7509 -4.58954,1.7509 -6.34039,0 z"
             inkscape:connector-curvature="0"
             style="fill:#ffffff;fill-opacity:1;fill-rule:evenodd"
             inkscape:label="#path3902" />
          <path
             style="fill:#ffffff;fill-opacity:1;fill-rule:evenodd"
             inkscape:connector-curvature="0"
             d="m 548.15352,1053.9048 v 0 c -1.75085,-1.751 -1.75085,-4.5898 0,-6.3408 l 48.79962,-48.80286 c 0.84076,-0.84082 1.98114,-1.31323 3.17017,-1.31323 1.18908,0 2.3294,0.47241 3.17022,1.31323 l 12.68036,12.68126 c 1.75086,1.7509 1.75086,4.5898 0,6.3408 l -48.79962,48.8028 c -1.75085,1.7509 -4.58954,1.7509 -6.34039,0 z"
             id="controllerbutton9"
             inkscape:label="#path5830" />
        </g>
      </g>
      <g
         inkscape:groupmode="layer"
         id="layer19"
         inkscape:label="Nothing" />
    </g>
    <g
       inkscape:groupmode="layer"
       id="layer11"
       inkscape:label="Left Hand"
       style="display:inline">
      <g
         inkscape:groupmode="layer"
         id="layer16"
         inkscape:label="Bright Star"
         style="display:inline"
         sodipodi:insensitive="true">
        <g
           id="g4976"
           transform="rotate(18.437234,214.47257,189.82494)"
           style="fill:#ffffff">
          <path
             id="path461"
             style="fill:#ffffff;fill-opacity:1;stroke:#ffffff;stroke-width:4.26667;stroke-miterlimit:4;stroke-dasharray:none;stroke-opacity:1"
             inkscape:transform-center-x="-1.2233591"
             inkscape:transform-center-y="-0.095788723"
             d="m 835.0293,721.1543 -30.34571,16.5332 -30.82421,-15.62305 6.3496,33.96875 -24.38476,24.48828 34.26758,4.45899 15.7539,30.75781 14.83008,-31.21289 34.1211,-5.47851 -25.10157,-23.75 z m -14.65235,20.81054 -2.72461,17.44532 12.82618,12.13476 -17.4336,2.79883 -7.57812,15.94727 -8.04883,-15.71485 -17.50977,-2.27929 12.45899,-12.51172 -3.24219,-17.35547 15.74805,7.98242 z"
             transform="matrix(0.25100244,-0.08367861,0.08367861,0.25100244,-51.668791,75.380253)" />
        </g>
      </g>
    </g>
    <path
       style="fill:none;fill-opacity:1;stroke:none;stroke-width:0.264583px;stroke-linecap:butt;stroke-linejoin:miter;stroke-opacity:1"
       d="m 144.05911,210.76466 c 0,0 -0.56437,5.30516 -1.24163,8.3528 -0.67725,3.04765 -3.49915,11.06182 -4.28927,15.3511 -0.79014,4.28927 -2.93477,14.22233 -0.11288,18.28586 2.82189,4.06352 7.9013,-1.58026 10.72319,-3.95065 2.82189,-2.37039 12.30345,-9.25581 22.91376,-9.59444 10.61032,-0.33862 19.41462,3.49915 25.39703,6.32104 5.98242,2.82189 12.41633,6.65967 15.23822,3.83778 2.82189,-2.8219 2.25752,-8.01418 -3.7249,-17.94724 -5.98241,-9.93306 -24.94552,-36.12022 -24.94552,-36.12022 0,0 -7.22405,-0.67725 -20.99488,2.70902 -13.77084,3.38627 -18.39874,6.32103 -18.39874,6.32103 0,0 0,2.3704 -0.56438,6.43392 z"
       id="bodymaterial"
       inkscape:connector-curvature="0"
       inkscape:label="#path5049" />
    <path
       style="fill:#ffffff;fill-opacity:1;stroke:none;stroke-width:0.264583px;stroke-linecap:butt;stroke-linejoin:miter;stroke-opacity:1"
       d="m 181.92163,195.24695 c -3.05862,0.0273 -6.88275,4.5779 -16.3502,6.90596 -13.77084,3.38627 -20.94779,2.17824 -20.94779,2.17824 0,0 8e-5,2.3702 -0.5643,6.43371 0,0 -0.56453,5.30534 -1.24179,8.35298 -0.67725,3.04765 -3.49902,11.06172 -4.28914,15.35101 -0.79014,4.28926 -2.93506,14.22217 -0.11317,18.2857 2.82189,4.06352 7.90148,-1.58027 10.72337,-3.95066 2.82189,-2.37039 12.30354,-9.25562 22.91385,-9.59425 10.61032,-0.33862 19.41449,3.49917 25.3969,6.32106 5.98242,2.82189 12.41646,6.65938 15.23835,3.83749 2.82189,-2.8219 2.25758,-8.01416 -3.72484,-17.94722 -5.98241,-9.93306 -24.94577,-36.12028 -24.94577,-36.12028 0,0 -0.7052,-0.0661 -2.09547,-0.0537 z m -0.81288,2.34663 c 0.90532,-0.008 1.4863,0.0248 1.76837,0.0439 4.0854,5.99501 17.10023,23.45848 23.50658,34.36379 2.16996,3.57583 7.78741,12.73783 4.39508,15.23267 -1.8444,1.59735 -9.82181,-2.93233 -12.15637,-4.04989 -6.04018,-2.84915 -14.43992,-7.67793 -25.62375,-7.321 -18.96648,0.63964 -29.12752,16.20793 -31.98875,14.6358 -2.86021,-1.78552 0.0124,-14.84013 1.60249,-20.92895 0.88437,-2.90559 1.98158,-8.09727 2.37246,-9.85625 0.73657,-3.31452 1.27404,-8.54085 1.27744,-8.57415 0.44578,-3.23456 0.43239,-4.41453 0.45476,-5.23999 0.3799,-0.21678 0.68322,-0.44827 2.76985,-1.28726 2.76786,-1.1129 10.29475,1.95811 17.0917,0.28673 9.2103,-2.26483 11.81422,-7.28127 14.53014,-7.30542 z"
       id="path4986"
       inkscape:connector-curvature="0"
       sodipodi:nodetypes="ssccsssssssscssscccccccsccssss" />
    <path
       sodipodi:nodetypes="cscczscc"
       inkscape:connector-curvature="0"
       id="path5058"
       d="m 143.94625,224.64858 c 0,0 11.49481,5.11307 25.73566,3.83777 15.12534,-1.3545 27.65454,-10.49744 27.65454,-10.49744 0,0 -1.63073,-2.49832 -3.49914,-4.96652 -10.78559,6.90048 -20.49119,9.77006 -25.05841,10.27168 -4.56722,0.50162 -13.49478,0.38137 -18.85024,-0.67725 -4.65738,-0.92063 -5.19228,-1.69314 -5.19228,-1.69314 z"
       style="fill:#ffffff;fill-opacity:1;stroke:none;stroke-width:0.26458300000000001px;stroke-linecap:butt;stroke-linejoin:miter;stroke-opacity:1" />
    <path
       sodipodi:nodetypes="csccccsccc"
       inkscape:connector-curvature="0"
       id="path5056"
       d="m 143.72049,224.5357 c 0,0 2.07977,0.95128 5.30516,1.91889 3.38627,1.01588 7.11117,1.46739 7.11117,1.46739 0,0 1.35451,-5.86954 5.19228,-12.41633 3.83778,-6.54679 12.49795,-15.81307 12.49795,-15.81307 l -8.06903,2.88514 c 0,0 -7.13793,6.83264 -10.74995,12.1378 -3.61202,5.30516 -4.47619,6.68255 -5.07941,7.67555 -1.84485,-0.24863 -5.30516,-1.46739 -5.30516,-1.46739 z"
       style="fill:#ffffff;fill-opacity:1;stroke:none;stroke-width:0.264583px;stroke-linecap:butt;stroke-linejoin:miter;stroke-opacity:1" />
  </g>
  <g
     inkscape:groupmode="layer"
     id="layer4"
     inkscape:label="Head"
     style="display:inline">
    <path
       inkscape:label="#path1040"
       inkscape:connector-curvature="0"
       id="headmaterial-1"
       d="m 173.63521,118.64076 c 0,0 -0.19697,9.16776 -3.34398,13.10153 0,0 -8.07449,-3.37288 -19.87579,-1.79938 -8.53134,1.13751 -12.52179,2.71422 -15.99696,4.94647 -0.75304,-0.34273 -2.50398,-1.27176 -3.8008,-3.00085 -1.69314,-2.25751 -3.27319,-7.67602 -3.27319,-7.67602 0,0 -9.03017,10.94895 -12.86795,21.10777 -3.83777,10.1588 -4.11916,19.75787 -3.61166,26.18755 0.48162,6.10182 4.9256,18.74314 12.52895,25.39689 7.40761,6.48245 11.0619,8.91722 23.70398,10.27172 15.36309,0.94515 26.07464,-2.40247 37.92637,-10.96883 9.87737,-7.3409 14.56092,-17.53294 14.16502,-31.07976 -0.36023,-12.32617 -2.35782,-21.48138 -9.24439,-31.50247 -6.37126,-9.27124 -16.3096,-14.98462 -16.3096,-14.98462 z"
       style="display:inline;fill:none;fill-opacity:1;stroke:none;stroke-width:0.26458300000000001px;stroke-linecap:butt;stroke-linejoin:miter;stroke-opacity:1" />
    <path
       style="display:inline;fill:#ffffff;fill-opacity:1;stroke:none;stroke-width:0.26301900000000000px;stroke-linecap:butt;stroke-linejoin:miter;stroke-opacity:1"
       d="m 118.96333,161.71842 c 0,0 7.64895,-1.54366 12.94519,-0.15925 5.29623,1.3844 6.77121,3.04513 11.07111,6.31034 -9.12556,-4.94137 -15.37067,-5.78672 -24.0163,-6.15109 z"
       id="path1261"
       inkscape:connector-curvature="0"
       sodipodi:nodetypes="czcc" />
    <path
       style="display:inline;fill:#ffffff;fill-opacity:1;stroke:none;stroke-width:0.20460500000000001px;stroke-linecap:butt;stroke-linejoin:miter;stroke-opacity:1"
       d="m 120.36936,151.09139 c 0,0 0.69978,-8.42203 5.30466,-15.72284 1.68397,2.82993 3.3631,4.67139 5.01445,6.05232 -4.64972,3.5574 -6.49935,5.18249 -10.31911,9.67052 z"
       id="path1188"
       inkscape:connector-curvature="0"
       sodipodi:nodetypes="cccc" />
    <path
       sodipodi:nodetypes="cccc"
       inkscape:connector-curvature="0"
       id="path1211"
       d="m 186.2092,138.51567 c 0,0 -3.99922,-5.66843 -9.03275,-9.29045 -1.05169,2.07157 -1.73856,4.51226 -3.03674,6.16776 2.80508,-5e-4 8.59179,0.71316 12.06949,3.12269 z"
       style="display:inline;fill:#ffffff;fill-opacity:1;stroke:none;stroke-width:0.13834199999999999px;stroke-linecap:butt;stroke-linejoin:miter;stroke-opacity:1" />
    <path
       style="display:inline;fill:none;fill-opacity:1;stroke:none;stroke-width:0.26458300000000001px;stroke-linecap:butt;stroke-linejoin:miter;stroke-opacity:1"
       d="m 118.33478,185.30329 c 9.47281,13.18645 18.85058,17.06901 33.23445,16.81865 19.38059,-0.33734 37.58954,-11.06506 44.11117,-25.9833 0,0 -9.97034,29.40745 -41.08987,29.00461 -31.11952,-0.40284 -36.25575,-19.83996 -36.25575,-19.83996 z"
       id="path1291"
       inkscape:connector-curvature="0"
       sodipodi:nodetypes="cscsc" />
    <path
       sodipodi:nodetypes="czcc"
       inkscape:connector-curvature="0"
       id="path1263"
       d="m 184.75347,157.85068 c 0,0 -8.48295,-0.87143 -14.12473,1.07623 -5.64182,1.94766 -7.0925,3.81609 -11.47057,7.62397 9.47939,-6.01378 16.2064,-7.49192 25.5953,-8.7002 z"
       style="display:inline;fill:#ffffff;fill-opacity:1;stroke:none;stroke-width:0.28113199999999999px;stroke-linecap:butt;stroke-linejoin:miter;stroke-opacity:1" />
    <g
       inkscape:groupmode="layer"
       id="layer17"
       inkscape:label="Head Gear"
       style="display:inline">
      <g
         style="display:inline"
         inkscape:label="Head Mask"
         id="g1064"
         inkscape:groupmode="layer">
        <path
           id="path1086"
           style="display:inline;fill:#ffffff;fill-opacity:1;stroke:none;stroke-width:0.262202px;stroke-linecap:butt;stroke-linejoin:miter;stroke-opacity:1"
           inkscape:label="#headmaterial"
           d="m 173.55544,119.86254 c 0.1891,-0.10662 0.3782,-0.21323 0.56731,-0.31985 -0.08,-0.0686 -0.15882,-0.44081 -0.24011,-0.23052 -0.10907,0.18346 -0.21813,0.36691 -0.3272,0.55037 z m -46.19896,5.42836 c 0.12922,-0.003 0.35973,0.16093 0.42494,0.0523 0.12697,-0.24665 -0.0577,-0.17159 -0.22917,-0.1102 -0.0653,0.0193 -0.13051,0.0387 -0.19577,0.058 z m 49.33208,1.94302 c -0.87629,2.24415 -1.81917,4.4756 -3.05155,6.55572 -0.5154,0.83788 -1.06428,1.68433 -1.82735,2.32543 -0.45408,0.29405 -1.03103,0.18533 -1.53856,0.1329 -1.60169,-0.24758 -3.18376,-0.60779 -4.78849,-0.83916 -1.44782,-0.21885 -2.90681,-0.37002 -4.37043,-0.43229 -0.26734,-0.01 -0.60624,-0.0219 -0.90125,-0.0248 -1.71159,-0.0166 -3.42326,-0.0749 -5.13497,-0.0383 -0.41662,0.0108 -0.89034,0.0296 -1.32854,0.0559 -0.43319,0.028 -0.92246,0.0662 -1.3762,0.11214 -3.43063,0.35613 -6.78802,1.18757 -10.10201,2.10672 -0.49271,0.13846 -0.97982,0.29533 -1.46378,0.46098 -0.13641,0.0505 -0.36186,0.12929 -0.53224,0.19121 -4.00341,1.48986 -7.65692,3.76972 -11.01965,6.35549 -1.39132,1.07176 -2.75566,2.2312 -4.03583,3.39826 -1.48992,1.36738 -2.92949,2.79051 -4.27292,4.29896 -0.18103,0.22408 -0.49182,0.38305 -0.73037,0.57389 -0.19199,0.13821 -0.38399,0.27643 -0.57599,0.41466 0.11743,-0.48912 0.20396,-0.98868 0.34041,-1.47135 1.27393,-2.6126 2.77068,-5.12081 4.47111,-7.48578 1.57021,-2.16253 3.32719,-4.22217 5.43365,-5.89751 -1.37861,-1.73202 -2.75688,-3.48725 -3.78759,-5.44921 -2.28971,3.81231 -4.48709,7.68225 -6.47012,11.65928 -1.12416,2.28597 -2.21028,4.60282 -2.97957,7.0321 -0.90947,2.89832 -1.43521,5.93621 -1.7068,8.93401 -0.0939,1.06767 -0.15823,2.10538 -0.1913,3.1807 -0.0398,1.20773 -0.0386,2.46376 -0.002,3.69132 0.0193,0.61808 0.0495,1.28397 0.0889,1.91986 0.0646,1.04017 0.16125,2.14618 0.28101,3.18068 0.0475,0.37378 0.10788,0.80632 0.17474,1.20127 0.16624,0.99994 0.38826,2.01761 0.65586,3.0142 0.0891,0.34996 0.20828,0.75343 0.29772,1.06525 0.88094,2.93915 2.09589,5.77934 3.59779,8.46214 0.38695,0.68808 0.81398,1.4033 1.25021,2.0819 1.37644,2.14584 2.985,4.20485 4.81451,6.0185 2.87672,2.85912 6.47693,4.93352 10.28322,6.34641 0.19917,0.0709 0.425,0.15637 0.63535,0.22884 1.9667,0.69082 4.04587,1.2313 6.1189,1.61626 1.27078,0.23674 2.5438,0.41871 3.81935,0.55079 1.7631,0.18343 3.55869,0.27373 5.34486,0.26988 1.47918,-0.0584 2.95599,-0.16928 4.42748,-0.32866 0.26705,-0.033 0.60543,-0.0709 0.89983,-0.10719 0.85272,-0.10768 1.70287,-0.23391 2.55046,-0.37538 0.25651,-0.0469 0.58436,-0.10305 0.86813,-0.15501 5.96909,-1.10792 11.78004,-3.17437 16.97391,-6.298 0.19379,-0.1212 0.4537,-0.27657 0.67204,-0.41365 4.93479,-3.08627 9.27099,-7.17055 12.37196,-12.07189 0.76134,-1.22208 1.49215,-2.47177 2.04291,-3.80195 1.00613,-2.48871 1.4954,-5.14876 1.7795,-7.80347 0.0867,-0.82943 0.14659,-1.65869 0.1891,-2.47621 0.051,-1.06071 0.0709,-2.10296 0.0591,-3.17341 -0.0214,-2.09798 -0.15839,-4.17172 -0.4016,-6.26687 -0.1154,-0.98852 -0.25249,-1.95262 -0.4156,-2.94046 -0.25615,-1.5215 -0.57438,-3.0776 -0.95754,-4.59058 -0.37532,-1.49453 -0.83662,-3.04233 -1.36563,-4.52873 -0.39691,-1.12063 -0.83998,-2.22589 -1.34942,-3.30158 -0.0755,-0.15702 -0.18688,-0.39374 -0.26555,-0.54959 -0.22531,-0.45736 -0.45455,-0.89793 -0.70272,-1.35777 -1.03299,-1.90217 -2.23839,-3.75779 -3.49288,-5.48944 -1.99449,-2.74127 -4.20419,-5.32722 -6.56124,-7.77158 -0.71796,-0.74172 -1.47633,-1.50106 -2.23897,-2.22091 -0.10258,-0.0533 -0.25707,-0.32936 -0.32674,-0.24134 -0.0588,0.15545 -0.11765,0.31089 -0.17649,0.46634 z m -18.88073,41.81794 c 4.61051,1.7e-4 9.23414,0.28574 13.77457,1.09392 2.64049,0.48423 5.27339,1.12715 7.72799,2.2226 1.36688,0.62762 2.7184,1.40077 3.69289,2.55934 0.68015,0.80038 1.0884,1.86829 0.92205,2.91797 -0.18377,1.24352 -1.00513,2.2871 -1.92184,3.11289 -1.48981,1.32058 -3.28595,2.24845 -5.10643,3.04345 -3.27819,1.39741 -6.73967,2.32986 -10.22767,3.058 -5.49249,1.12674 -11.09226,1.71177 -16.69808,1.876 -5.0292,0.13262 -10.07994,-0.0663 -15.0546,-0.82567 -2.8685,-0.45418 -5.73157,-1.07621 -8.42771,-2.16473 -1.4823,-0.61814 -2.95401,-1.37433 -4.07947,-2.53261 -0.76038,-0.77806 -1.30386,-1.83257 -1.2309,-2.93512 0.0683,-1.2182 0.79577,-2.28981 1.65048,-3.12592 1.34908,-1.30594 3.02119,-2.22918 4.71853,-3.01998 3.03299,-1.38106 6.25401,-2.31402 9.50166,-3.05845 5.29423,-1.19181 10.70455,-1.84396 16.12586,-2.10747 1.54308,-0.0732 3.08774,-0.11139 4.63267,-0.11422 z" />
      </g>
    </g>
    <g
       inkscape:groupmode="layer"
       id="layer3"
       inkscape:label="Eyes"
       style="display:inline">
      <g
         inkscape:groupmode="layer"
         id="layer15"
         inkscape:label="Eyes Angry"
         style="display:inline">
        <g
           style="display:inline;fill:#ffffff"
           id="g1058"
           transform="translate(0.01430574,0.61364089)">
          <g
             id="g1056"
             style="fill:#ffffff">
            <path
               style="fill:#ffffff;fill-opacity:1;stroke:none;stroke-width:0.198808;stroke-opacity:1"
               d="m 138.59421,179.78014 c -0.17031,1.84638 -1.50124,3.2336 -3.36913,3.2336 -1.86789,0 -3.38211,-1.50315 -3.38211,-3.35737 0,-1.85422 1.52276,-3.5357 3.38211,-3.35736 1.19858,0.11496 3.44479,2.66081 3.36913,3.48113 z"
               id="path1048"
               inkscape:connector-curvature="0"
               sodipodi:nodetypes="sssss" />
            <path
               style="display:inline;fill:#ffffff;fill-opacity:1;stroke:none;stroke-width:0.26458300000000001px;stroke-linecap:butt;stroke-linejoin:miter;stroke-opacity:1"
               d="m 122.58431,170.65102 3.32983,-3.2734 c 0,0 3.0017,1.8985 6.15967,4.77297 4.02703,3.66551 6.26877,6.90967 6.26877,6.90967 l -0.68937,0.84656 c 0,0 -3.10408,-3.83777 -8.23992,-6.15173 -5.13585,-2.31395 -6.82898,-3.10407 -6.82898,-3.10407 z"
               id="path1050"
               inkscape:connector-curvature="0"
               sodipodi:nodetypes="ccscccc" />
            <path
               style="fill:#ffffff;fill-opacity:1;stroke:none;stroke-width:0.225592;stroke-opacity:1"
               d="m 168.63628,177.73749 c 0,2.10403 -1.71823,3.80969 -3.83777,3.80969 -2.11955,0 -3.83778,-1.70565 -3.83778,-3.80969 0.22575,-1.25747 1.21029,-3.80969 3.83778,-3.80969 2.11954,0 3.83777,1.70566 3.83777,3.80969 z"
               id="path1052"
               inkscape:connector-curvature="0"
               sodipodi:nodetypes="cscsc" />
            <path
               style="fill:#ffffff;fill-opacity:1;stroke:none;stroke-width:0.26458300000000001px;stroke-linecap:butt;stroke-linejoin:miter;stroke-opacity:1"
               d="m 173.99788,161.96245 c 0,0 -4.51503,4.17641 -7.11117,6.94186 -2.59614,2.76546 -4.91009,6.43392 -4.91009,6.43392 l 1.66753,0.50794 c 0,0 1.04149,-2.93477 5.10501,-5.98241 4.06353,-3.04765 9.53799,-5.64379 9.53799,-5.64379 z"
               id="path1054"
               inkscape:connector-curvature="0"
               sodipodi:nodetypes="ccccscc" />
          </g>
        </g>
      </g>
      <g
         inkscape:label="Eyes Calm"
         id="g1257"
         inkscape:groupmode="layer"
         sodipodi:insensitive="true"
         style="display:none">
        <g
           transform="translate(0.01430574,0.61364089)"
           id="g1255"
           style="display:inline">
          <g
             id="g1253">
            <path
               sodipodi:nodetypes="sssss"
               inkscape:connector-curvature="0"
               id="path1245"
               d="m 138.59421,179.78014 c -0.0983,1.85161 -1.50124,3.2336 -3.36913,3.2336 -1.86789,0 -3.38211,-1.50315 -3.38211,-3.35737 0,-1.85422 1.5153,-3.42072 3.38211,-3.35736 1.90355,0.0646 3.44479,2.05655 3.36913,3.48113 z"
               style="fill:#000000;fill-opacity:1;stroke:none;stroke-width:0.198808;stroke-opacity:1" />
            <path
               sodipodi:nodetypes="cscsc"
               inkscape:connector-curvature="0"
               id="path1249"
               d="m 168.63628,177.73749 c 0,2.10403 -1.71823,3.80969 -3.83777,3.80969 -2.11955,0 -3.83778,-1.70565 -3.83778,-3.80969 0.0747,-1.81138 1.21029,-3.80969 3.83778,-3.80969 2.11954,0 3.83777,1.70566 3.83777,3.80969 z"
               style="fill:#000000;fill-opacity:1;stroke:none;stroke-width:0.225592;stroke-opacity:1" />
            <path
               sodipodi:nodetypes="ccccscc"
               inkscape:connector-curvature="0"
               id="path1251"
               d="m 176.56599,172.38598 c 0,0 -3.96112,-3.83007 -9.17573,-4.08593 -5.06354,-0.004 -8.58602,4.82255 -8.58602,4.82255 l 1.76824,0.75972 c 0,0 1.43839,-2.76469 5.55821,-3.4143 3.29388,-0.51937 6.41596,3.26909 6.41596,3.26909 z"
               style="fill:#000000;fill-opacity:1;stroke:none;stroke-width:0.264583px;stroke-linecap:butt;stroke-linejoin:miter;stroke-opacity:1" />
            <path
               style="fill:#000000;fill-opacity:1;stroke:none;stroke-width:0.247516px;stroke-linecap:butt;stroke-linejoin:miter;stroke-opacity:1"
               d="m 123.99514,174.26626 c 0,0 3.19382,-3.56569 7.60374,-4.00235 4.64066,-0.004 8.12073,4.90717 8.12073,4.90717 l -1.62056,0.72545 c 0,0 -1.63834,-3.08885 -5.44651,-3.46172 -3.52234,-0.34489 -5.52765,3.32307 -5.52765,3.32307 z"
               id="path1259"
               inkscape:connector-curvature="0"
               sodipodi:nodetypes="ccccscc" />
          </g>
        </g>
      </g>
    </g>
    <path
       sodipodi:nodetypes="ccscccsssccssccsscssccccsscc"
       inkscape:connector-curvature="0"
       id="path1042"
       d="m 173.63521,118.64077 c 0,0 -0.19697,9.16776 -3.34398,13.10152 0,0 -8.07449,-3.37288 -19.87579,-1.79937 -8.53133,1.13751 -12.52179,2.71422 -15.99695,4.94647 -0.75305,-0.34274 -2.50399,-1.27176 -3.80081,-3.00085 -1.69314,-2.25752 -3.27318,-7.67602 -3.27318,-7.67602 0,0 -9.03018,10.94894 -12.86795,21.10776 -3.83778,10.15881 -4.11917,19.75787 -3.61167,26.18754 0.48162,6.10182 4.92561,18.74315 12.52896,25.3969 7.40761,6.48245 11.06189,8.91723 23.70397,10.27173 15.36309,0.94514 26.07464,-2.40247 37.92637,-10.96884 9.87737,-7.3409 14.56093,-17.53295 14.16502,-31.07976 -0.36023,-12.32616 -2.35782,-21.48138 -9.24439,-31.50247 -6.37126,-9.27123 -16.3096,-14.98461 -16.3096,-14.98461 z m 3.06958,6.3593 c 0,0 10.95026,9.80242 15.17065,20.71036 4.61102,11.91756 4.81441,27.84504 1.05402,35.27027 -6.39185,12.62127 -21.12454,22.2672 -40.86502,23.03521 -9.61103,0 -19.91678,-2.6465 -26.52603,-9.25576 -6.20816,-6.20816 -10.27173,-15.57693 -11.06186,-22.91385 -0.79013,-7.33691 -0.33855,-15.35132 1.80609,-21.78523 2.35312,-7.05938 9.82007,-19.30166 9.82007,-19.30166 1.00384,2.43382 3.2388,5.1691 4.47875,6.75651 -5.96179,4.50255 -10.21328,13.78539 -10.21328,13.78539 0,0 10.08437,-11.95719 21.89065,-15.28331 9.5937,-2.70278 12.5361,-2.29835 17.73299,-2.25134 6.31159,0.0571 10.903,1.85125 11.57013,1.26794 2.41039,-2.10758 5.14284,-10.03453 5.14284,-10.03453 z"
       style="display:inline;fill:#ffffff;fill-opacity:1;stroke:none;stroke-width:0.26458300000000001px;stroke-linecap:butt;stroke-linejoin:miter;stroke-opacity:1" />
    <path
       sodipodi:nodetypes="ccscccsssccssccsscssccccsscc"
       inkscape:connector-curvature="0"
       id="path1084"
       d="m 173.63521,118.64077 c 0,0 -0.19697,9.16776 -3.34398,13.10152 0,0 -8.07449,-3.37288 -19.87579,-1.79937 -8.53133,1.13751 -12.52179,2.71422 -15.99695,4.94647 -0.75305,-0.34274 -2.50399,-1.27176 -3.80081,-3.00085 -1.69314,-2.25752 -3.27318,-7.67602 -3.27318,-7.67602 0,0 -9.03018,10.94894 -12.86795,21.10776 -3.83778,10.15881 -4.11917,19.75787 -3.61167,26.18754 0.48162,6.10182 4.92561,18.74315 12.52896,25.3969 7.40761,6.48245 11.06189,8.91723 23.70397,10.27173 15.36309,0.94514 26.07464,-2.40247 37.92637,-10.96884 9.87737,-7.3409 14.56093,-17.53295 14.16502,-31.07976 -0.36023,-12.32616 -2.35782,-21.48138 -9.24439,-31.50247 -6.37126,-9.27123 -16.3096,-14.98461 -16.3096,-14.98461 z m 3.06958,6.3593 c 0,0 10.95026,9.80242 15.17065,20.71036 4.61102,11.91756 4.81441,27.84504 1.05402,35.27027 -6.39185,12.62127 -21.12454,22.2672 -40.86502,23.03521 -9.61103,0 -19.91678,-2.6465 -26.52603,-9.25576 -6.20816,-6.20816 -10.27173,-15.57693 -11.06186,-22.91385 -0.79013,-7.33691 -0.33855,-15.35132 1.80609,-21.78523 2.35312,-7.05938 9.82007,-19.30166 9.82007,-19.30166 1.00384,2.43382 3.2388,5.1691 4.47875,6.75651 -5.96179,4.50255 -10.21328,13.78539 -10.21328,13.78539 0,0 10.08437,-11.95719 21.89065,-15.28331 9.5937,-2.70278 12.5361,-2.29835 17.73299,-2.25134 6.31159,0.0571 10.903,1.85125 11.57013,1.26794 2.41039,-2.10758 5.14284,-10.03453 5.14284,-10.03453 z"
       style="display:inline;fill:#ffffff;fill-opacity:1;stroke:none;stroke-width:0.26458300000000001px;stroke-linecap:butt;stroke-linejoin:miter;stroke-opacity:1" />
  </g>
  <g
     inkscape:groupmode="layer"
     id="layer22"
     inkscape:label="Text"
     style="display:inline">
    <g
       id="g1061"
       transform="matrix(0.6689782,0,0,0.6689782,95.700763,154.47903)">
      <path
         inkscape:connector-curvature="0"
         id="path1718"
         d="m -45.660802,192.09396 q -2.087729,0 -2.993098,-0.93018 -0.901237,-0.93017 -0.901237,-3.5264 0,-1.75286 0.338997,-4.23333 0.338998,-2.4846 1.18649,-7.50756 0.111622,-0.67799 0.901236,-5.5025 0.79375,-4.82865 1.413868,-10.13272 0.562239,-4.51445 0.562239,-6.77168 0,-2.54248 -1.860351,-2.54248 -1.413867,0 -3.530534,1.49655 -2.112531,1.49655 -4.54339,4.77077 -0.789617,1.07073 -1.748732,1.07073 -0.789614,0 -1.384927,-0.76067 -0.59118,-0.76481 -0.59118,-1.72393 0,-0.95911 0.338998,-1.83141 0.338997,-0.87643 1.24437,-2.11667 2.765721,-3.78271 6.151562,-5.8415 3.385838,-2.06293 7.110676,-2.06293 3.104719,0 4.655013,1.92237 1.554427,1.91823 1.554427,5.58519 0,3.27421 -0.905372,9.48365 2.823601,-8.35504 7.168557,-12.67106 4.349088,-4.32015 10.219531,-4.32015 4.626073,0 6.965982,2.62517 2.344044,2.62516 2.344044,7.02799 0,2.4846 -0.73174,6.03994 l -3.443716,16.14372 q -0.566375,2.81948 -0.566375,4.85346 0,2.36885 1.099675,3.55534 1.103809,1.18649 3.079916,1.18649 1.860352,0 3.6380215,-1.24024 1.777669,-1.24436 4.208528,-4.12171 0.67386,-0.79375 1.521355,-0.79375 0.735872,0 1.157552,0.678 0.421679,0.67799 0.421679,1.86448 0,2.19935 -1.070737,3.49746 -2.935221,3.55534 -5.812565,5.19245 -2.8773435,1.63711 -6.0399405,1.63711 -4.799708,0 -7.507551,-2.8484 -2.707847,-2.85254 -2.707847,-7.64812 0,-1.86448 0.31006,-4.06383 0.310057,-2.20349 1.041797,-5.58933 l 2.261359,-10.32702 q 0.111623,-0.5085 0.392743,-1.80661 0.281119,-1.29811 0.450617,-2.45566 0.1695,-1.15755 0.1695,-2.28617 0,-1.8066 -1.016992,-2.87734 -1.01286,-1.07487 -2.877344,-1.07487 -3.385841,0 -6.77168,3.61321 -3.385841,3.61322 -6.267317,11.65821 -2.877344,8.04085 -4.514453,20.57136 -0.392742,2.87734 -1.157552,4.00596 -0.760677,1.12861 -2.964162,1.12861 z m 46.9067065,-30.3072 q -2.372982,0 -3.559474,-1.09968 -1.182357,-1.1038 -1.182357,-3.07991 0,-1.97611 1.550294,-3.29902 1.55442699,-1.32706 3.869531,-1.32706 2.087727,0 3.385839,1.017 1.298112,1.01285 1.298112,2.87734 0,2.25723 -1.46761,3.58428 -1.467611,1.32705 -3.894335,1.32705 z m -0.45062001,30.3072 q -3.67109399,0 -5.33714099,-2.59622 -1.661914,-2.59623 -1.661914,-6.8833 0,-2.54249 0.649055,-6.51951 0.649057,-3.98116 1.661914,-7.42487 0.508497,-1.80661 1.35599,-2.48047 0.847494,-0.67799 2.70784599,-0.67799 2.88147601,0 2.88147601,1.91822 0,1.40974 -1.074869,6.54844 -1.35185501,6.20532 -1.35185501,8.4088 0,1.69499 0.45061801,2.59622 0.450619,0.90124 1.525489,0.90124 1.012857,0 2.538346,-1.40974 1.525487,-1.40973 4.063834,-4.45657 0.677994,-0.79375 1.5254885,-0.79375 0.731737,0 1.153417,0.67799 0.425815,0.678 0.425815,1.86449 0,2.25723 -1.07487,3.49746 -5.5851895,6.82956 -10.43863951,6.82956 z m 10.94977451,0 q -2.1456035,0 -3.0220355,-2.25723 -0.872299,-2.25722 -0.872299,-7.22229 0,-7.33807 2.087729,-13.94438 0.5084945,-1.63711 1.6619135,-2.39779 1.157552,-0.76067 3.249414,-0.76067 1.128612,0 1.579231,0.28112 0.450618,0.28111 0.450618,1.07073 0,0.90537 -0.847492,4.06384 -0.56224,2.26135 -0.901237,3.95634 -0.338998,1.69086 -0.566375,4.17133 1.864486,-4.85346 4.175455,-7.9003 2.315104,-3.04684 4.543393,-4.34495 2.232422,-1.29811 4.096906,-1.29811 3.666961,0 3.666961,3.66695 0,2.20349 -1.240234,7.95818 -1.07487,4.91133 -1.07487,6.49056 0,2.25723 1.637109,2.25723 1.128612,0 2.678915,-1.38079 1.554427,-1.38493 4.150651,-4.48552 0.677994,-0.79375 1.525489,-0.79375 0.731737,0 1.153417,0.67799 0.425815,0.678 0.425815,1.86449 0,2.25723 -1.070737,3.49746 -2.426724,2.9931 -5.221385,4.91133 -2.79467,1.91823 -6.350008,1.91823 -2.877344,0 -4.344956,-1.66191 -1.467609,-1.66605 -1.467609,-4.82865 0,-1.57923 0.789614,-5.64307 0.73174,-3.55534 0.73174,-4.91133 0,-0.90124 -0.620117,-0.90124 -0.73174,0 -2.058789,1.88929 -1.327052,1.8893 -2.711979,4.99402 -1.380794,3.10472 -2.228289,6.54844 -0.620117,2.6541 -1.438672,3.58427 -0.818555,0.93018 -2.567287,0.93018 z m 30.02561,-30.3072 q -2.368844,0 -3.555334,-1.09968 -1.186492,-1.1038 -1.186492,-3.07991 0,-1.97611 1.550294,-3.29902 1.554427,-1.32706 3.869532,-1.32706 2.08773,0 3.38584,1.017 1.29811,1.01285 1.29811,2.87734 0,2.25723 -1.46761,3.58428 -1.46761,1.32705 -3.89434,1.32705 z m 10.16166,17.55345 q 0.73174,0 1.15341,0.70694 0.42582,0.7028 0.42582,1.77353 0,1.29812 -0.39688,2.03399 -0.39274,0.73174 -1.24023,1.29811 -3.95221,2.59622 -10.55439,7.16855 -2.199354,11.74089 -5.700948,18.45469 -3.497468,6.71794 -8.917294,6.71794 -2.935221,0 -4.71289,-1.77767 -1.777669,-1.77767 -1.777669,-4.65501 0,-4.01009 3.104721,-8.55349 3.104719,-4.54339 11.683015,-11.20345 l 0.39274,-2.87734 q 0.79375,-5.41982 1.24437,-10.67015 0.338997,-3.04685 1.070734,-9.08679 0.227378,-1.63711 1.240234,-2.39779 1.016992,-0.76067 3.104717,-0.76067 1.69499,0 2.22829,0.50849 0.53744,0.50436 0.53744,1.40973 0,2.59623 -1.86036,14.33712 l -0.56637,3.89434 q 4.51859,-3.38584 8.24343,-5.87045 0.73173,-0.45062 1.29811,-0.45062 z m -24.610395,32.68018 q 1.467612,0 3.220477,-3.3321 1.748737,-3.32796 3.270091,-10.72389 -4.287083,3.6711 -6.176375,6.63112 -1.893424,2.96416 -1.893424,5.22139 0,2.20348 1.579231,2.20348 z m 28.671445,-19.92643 q -3.21634,0 -5.22138,-2.53835 -2.00091,-2.54248 -2.00091,-6.66006 0,-4.51445 2.08772,-8.54935 2.08773,-4.03903 5.55625,-6.4947 3.47266,-2.45566 7.37113,-2.45566 1.24023,0 1.66191,0.47956 0.42582,0.47955 0.70694,1.72392 1.07073,-0.22737 2.36885,-0.22737 1.35599,0 2.08772,0.67799 0.73587,0.678 0.73587,1.91823 0,1.29811 -0.56224,4.51859 -0.62425,3.43959 -0.96324,6.57325 -0.33487,3.13366 -0.33487,7.02799 0,2.14561 -0.87643,3.07578 -0.87643,0.93018 -2.85254,0.93018 -1.91823,0 -2.8484,-0.93018 -0.93018,-0.93017 -0.93018,-3.0179 l 0.0538,-0.90537 q -1.74874,4.85345 -6.03995,4.85345 z m 2.20349,-5.70095 q 1.57923,0 2.87734,-2.19934 1.29811,-2.20349 2.31511,-7.84656 l 1.07073,-5.70094 q -2.31097,0.0579 -4.28708,1.7818 -1.9761,1.71979 -3.16259,4.54339 -1.18649,2.81947 -1.18649,5.97794 0,1.69499 0.64905,2.57142 0.64906,0.87229 1.72393,0.87229 z m 47.865271,5.87045 q -7.507551,0 -12.026141,-2.84841 -4.51445,-2.85254 -4.51445,-8.72298 0,-3.10472 1.07074,-4.7377 1.07487,-1.63711 3.16259,-1.63711 1.52549,0 2.48461,0.78961 0.95911,0.78962 0.95911,2.02986 0,1.12862 -0.1695,1.97611 0,0.22737 -0.0868,0.79375 -0.0827,0.56224 -0.0827,1.18236 0,2.53834 2.56728,3.78271 2.571421,1.24023 7.197491,1.24023 4.79971,0 7.50756,-1.71979 2.70784,-1.72392 2.70784,-4.82864 0,-1.91823 -1.24023,-3.29903 -1.24024,-1.38493 -3.10472,-2.31511 -1.86449,-0.93017 -5.25033,-2.28616 -4.34495,-1.69499 -7.08174,-3.21634 -2.736781,-1.52549 -4.683951,-4.15065 -1.94717,-2.62517 -1.94717,-6.5195 0,-4.06384 2.17041,-7.2223 2.17455,-3.1626 6.267321,-4.91133 4.09277,-1.74873 9.62422,-1.74873 4.11758,0 7.56129,1.21543 3.44372,1.2113 5.50251,3.6959 2.06292,2.48047 2.06292,6.09368 0,3.55534 -1.07487,5.36195 -1.07073,1.80661 -3.15846,1.80661 -1.46761,0 -2.45566,-0.90124 -0.98806,-0.90537 -0.98806,-2.1456 0,-1.07487 0.1695,-1.97611 0.1695,-1.69499 0.1695,-2.14561 0,-2.36884 -2.3151,-3.60908 -2.31511,-1.24437 -5.75883,-1.24437 -4.85345,0 -7.42073,1.77767 -2.56729,1.77767 -2.56729,4.99401 0,2.14561 1.32292,3.67109 1.32705,1.52136 3.30316,2.53835 1.97611,1.01699 5.53144,2.42673 4.29122,1.74873 6.88744,3.16259 2.59622,1.40974 4.42763,3.83646 1.83555,2.42673 1.83555,5.98208 0,6.66005 -5.05189,10.24433 -5.05188,3.58428 -13.51442,3.58428 z m 55.0314,-11.28614 q 1.29811,0 1.29811,1.74874 0,2.19934 -0.98806,3.44371 -0.98804,1.24024 -2.68303,1.24024 l -2.08773,-0.0579 q -0.56224,-0.0537 -1.63711,-0.0537 0.22738,3.21634 0.22738,6.43268 0,8.52454 -2.23242,14.8456 -2.22829,6.32106 -6.97012,6.32106 -3.21634,0 -4.88239,-3.69589 -1.66192,-3.6959 -1.66192,-9.0041 0,-6.60219 1.46762,-13.039 -1.92237,2.93522 -5.02709,2.93522 -3.10058,0 -5.16351,-2.59622 -2.05879,-2.59623 -2.05879,-6.71381 0,-4.46071 2.11667,-8.46667 2.11667,-4.01009 5.64307,-6.46576 3.5264,-2.45566 7.53649,-2.45566 1.35185,0 2.08773,0.90537 0.50849,-1.80661 1.52135,-2.42672 1.01699,-0.62012 2.8236,-0.62012 1.91823,0 2.56729,0.56637 0.64905,0.56224 0.59531,1.63298 0,0.67799 -0.70694,3.13366 -0.7028,2.45566 -0.93017,3.24528 -0.90537,3.15846 -1.9513,6.99906 -1.0418,3.83646 -1.66192,6.99906 -1.80661,9.0289 -1.80661,15.97422 0,2.59622 0.42168,4.42763 0.42582,1.83555 1.10381,1.83555 0.56224,0 1.2113,-1.91823 0.64905,-1.91823 1.09967,-5.1387 0.45475,-3.21635 0.45475,-6.82956 0,-4.28708 -0.39687,-7.61918 -0.0537,-0.28112 -0.0537,-0.90123 0,-1.86449 0.93017,-3.10472 0.93018,-1.24024 2.62517,-1.24024 0.22324,0 4.28707,-0.1695 1.69499,-0.16949 2.88148,-0.1695 z m -22.9154,5.41569 q 1.29811,0 2.48047,-1.60817 1.18649,-1.60817 1.69499,-3.86539 l 2.42672,-10.27328 q -2.4846,0.0579 -4.54339,1.75286 -2.05879,1.69085 -3.27422,4.48551 -1.21543,2.79467 -1.21543,5.89939 0,1.74873 0.64906,2.67891 0.64905,0.93017 1.7818,0.93017 z m 25.22843,5.70095 q -2.53834,0 -4.15065,-2.33991 -1.60817,-2.34404 -1.60817,-5.8415 0,-4.23334 0.56224,-7.75974 0.56638,-3.53054 1.86449,-7.48275 0.56637,-1.69086 1.57922,-2.42259 1.01701,-0.73587 3.22048,-0.73587 1.24024,0 1.7198,0.39687 0.47955,0.39274 0.47955,1.18236 0,0.45061 -0.6201,3.04684 -0.56224,2.08773 -0.90125,3.78271 -1.12861,5.92833 -1.12861,7.9003 0,1.1865 0.28112,1.66605 0.28112,0.47956 0.90123,0.47956 0.84751,0 2.11666,-1.69085 1.27331,-1.69499 2.71198,-5.13871 1.43867,-3.44372 2.79466,-8.46667 0.45064,-1.69086 1.38081,-2.42259 0.93017,-0.73587 2.79466,-0.73587 1.2981,0 1.8066,0.31005 0.50851,0.31006 0.50851,1.15755 0,1.40974 -1.41388,7.7308 -1.57922,7.22644 -1.57922,8.91729 0,1.07487 0.45061,1.66605 0.45476,0.59118 1.1865,0.59118 1.1286,0 2.6789,-1.38079 1.55443,-1.38493 4.15065,-4.48552 0.678,-0.79375 1.52549,-0.79375 0.73173,0 1.15342,0.678 0.42582,0.67799 0.42582,1.86448 0,2.25723 -1.07074,3.49746 -2.43086,2.9931 -5.22552,4.91133 -2.79054,1.91823 -6.34588,1.91823 -2.71197,0 -3.98115,-2.08773 -1.26916,-2.08773 -1.26916,-5.87044 -0.95911,3.84059 -2.88149,5.89938 -1.91823,2.05879 -4.11758,2.05879 z m 27.71383,-30.3072 q -2.37299,0 -3.55949,-1.09968 -1.18235,-1.1038 -1.18235,-3.07991 0,-1.97611 1.5503,-3.29902 1.55443,-1.32706 3.86954,-1.32706 2.08772,0 3.38582,1.017 1.29812,1.01285 1.29812,2.87734 0,2.25723 -1.46762,3.58428 -1.46761,1.32705 -3.89432,1.32705 z m -0.45064,30.3072 q -3.67109,0 -5.33712,-2.59622 -1.66193,-2.59623 -1.66193,-6.88331 0,-2.54248 0.64905,-6.5195 0.64908,-3.98116 1.66193,-7.42487 0.5085,-1.80661 1.35599,-2.48047 0.84749,-0.67799 2.70785,-0.67799 2.88147,0 2.88147,1.91822 0,1.40974 -1.07487,6.54844 -1.35186,6.20531 -1.35186,8.4088 0,1.69499 0.45061,2.59622 0.45064,0.90124 1.52551,0.90124 1.01285,0 2.53833,-1.40974 1.52548,-1.40973 4.06384,-4.45657 0.678,-0.79375 1.52549,-0.79375 0.73173,0 1.15339,0.67799 0.4258,0.678 0.4258,1.86449 0,2.25723 -1.07482,3.49746 -5.58519,6.82956 -10.43866,6.82956 z m 10.94976,0 q -2.14562,0 -3.02205,-2.25723 -0.87228,-2.25722 -0.87228,-7.2223 0,-7.33806 2.08773,-13.94437 0.5085,-1.63711 1.6619,-2.39779 1.15755,-0.76067 3.24942,-0.76067 1.1286,0 1.57921,0.28112 0.45064,0.28111 0.45064,1.07073 0,0.90537 -0.84751,4.06384 -0.56223,2.26135 -0.90122,3.95634 -0.33901,1.69086 -0.56636,4.17133 1.86445,-4.85346 4.17543,-7.9003 2.3151,-3.04684 4.5434,-4.34495 2.23242,-1.29811 4.09691,-1.29811 3.66694,0 3.66694,3.66695 0,0.73588 -0.50847,3.55534 -0.45064,2.25723 -0.45064,2.8236 0,1.97612 1.40975,1.97612 1.58335,0 4.06382,-2.48461 0.73588,-0.73174 1.5255,-0.73174 0.73174,0 1.1534,0.64905 0.42582,0.64906 0.42582,1.7198 0,2.08773 -1.1286,3.27422 -1.57925,1.63711 -3.69592,2.79466 -2.11666,1.15756 -4.48963,1.15756 -2.98897,0 -4.5434,-1.52549 -1.5503,-1.52549 -1.5503,-4.12171 0,-0.8475 0.16952,-1.69086 0.1116,-1.12862 0.1116,-1.52549 0,-0.90124 -0.6201,-0.90124 -0.84749,0 -2.23243,1.88929 -1.3808,1.8893 -2.73679,4.99402 -1.35184,3.10472 -2.19934,6.54844 -0.62011,2.6541 -1.43867,3.58427 -0.81855,0.93018 -2.56728,0.93018 z m 25.68156,0 q -2.14559,0 -3.02202,-2.25723 -0.87231,-2.25722 -0.87231,-7.2223 0,-7.33806 2.08773,-13.94437 0.5085,-1.63711 1.66192,-2.39779 1.15756,-0.76067 3.2494,-0.76067 1.12861,0 1.57925,0.28112 0.45061,0.28111 0.45061,1.07073 0,0.90537 -0.84749,4.06384 -0.56224,2.26135 -0.90125,3.95634 -0.33898,1.69086 -0.56636,4.17133 1.86449,-4.85346 4.17544,-7.9003 2.3151,-3.04684 4.5434,-4.34495 2.23242,-1.29811 4.09691,-1.29811 3.66697,0 3.66697,3.66695 0,0.73588 -0.5085,3.55534 -0.45062,2.25723 -0.45062,2.8236 0,1.97612 1.40973,1.97612 1.58337,0 4.06384,-2.48461 0.73586,-0.73174 1.52548,-0.73174 0.73173,0 1.15343,0.64905 0.42579,0.64906 0.42579,1.7198 0,2.08773 -1.12861,3.27422 -1.57921,1.63711 -3.69588,2.79466 -2.11667,1.15756 -4.48966,1.15756 -2.98897,0 -4.5434,-1.52549 -1.55027,-1.52549 -1.55027,-4.12171 0,-0.8475 0.16949,-1.69086 0.11163,-1.12862 0.11163,-1.52549 0,-0.90124 -0.62013,-0.90124 -0.84749,0 -2.23243,1.88929 -1.38078,1.8893 -2.73677,4.99402 -1.35186,3.10472 -2.19935,6.54844 -0.62013,2.6541 -1.43867,3.58427 -0.81857,0.93018 -2.5673,0.93018 z m 46.84831,-12.8695 q 0.73173,0 1.15343,0.67799 0.42579,0.678 0.42579,1.86449 0,2.25723 -1.07487,3.49746 -2.08772,2.54248 -5.89936,4.68809 -3.80754,2.14147 -8.15247,2.14147 -5.92834,0 -9.20256,-3.21634 -3.27009,-3.21634 -3.27009,-8.80567 0,-3.89434 1.63298,-7.25124 1.63711,-3.36104 4.5434,-5.33301 2.91042,-1.9761 6.57739,-1.9761 3.27421,0 5.25031,1.94716 1.97612,1.94717 1.97612,5.27513 0,3.89434 -2.79466,6.68901 -2.79467,2.79466 -9.45473,4.43177 1.40973,2.59622 5.36194,2.59622 2.53836,0 5.78363,-1.77767 3.2494,-1.77767 5.61827,-4.65501 0.67799,-0.79375 1.52548,-0.79375 z m -14.22548,-8.18142 q -2.08775,0 -3.52642,2.42672 -1.43867,2.42673 -1.43867,5.87045 v 0.11163 q 3.32798,-0.78962 5.24621,-2.36886 1.91823,-1.58336 1.91823,-3.67109 0,-1.07074 -0.59119,-1.71979 -0.59118,-0.64906 -1.60816,-0.64906 z m 32.62487,8.18142 q 0.73173,0 1.15343,0.67799 0.42579,0.678 0.42579,1.86449 0,2.25723 -1.07072,3.49746 -2.42673,2.9931 -5.27928,4.91133 -2.8484,1.91823 -6.4616,1.91823 -4.96922,0 -7.36701,-4.51445 -2.39778,-4.51446 -2.39778,-11.68302 0,-6.88743 1.77768,-15.6931 1.77766,-8.80566 5.24618,-15.12672 3.47266,-6.32106 8.27236,-6.32106 2.70785,0 4.25815,2.51354 1.55443,2.5094 1.55443,7.19336 0,6.71793 -3.72486,15.58147 -3.72483,8.85941 -10.10377,17.55346 0.39687,2.31511 1.29812,3.30316 0.90538,0.98392 2.37297,0.98392 2.31098,0 4.05971,-1.32292 1.75287,-1.32705 4.46072,-4.54339 0.67799,-0.79375 1.52548,-0.79375 z m -6.94118,-34.87953 q -1.30226,0 -2.93937,4.68395 -1.63295,4.68395 -2.87734,11.62926 -1.24023,6.94118 -1.35184,13.32012 4.00596,-6.60632 6.3748,-13.23744 2.37299,-6.63112 2.37299,-12.10882 0,-4.28707 -1.57924,-4.28707 z m 14.4482,48.99339 q -2.9352,0 -4.48963,-1.35599 -1.5503,-1.35599 -1.5503,-3.04684 0,-1.46761 1.07074,-2.53834 1.07487,-1.07487 3.16259,-1.07487 0.73173,0 1.71979,0.14056 0.98806,0.14056 1.49657,0.19843 -0.0579,-1.46761 -0.64908,-2.76572 -0.59116,-1.29811 -1.49654,-2.50941 -0.90125,-1.21543 -1.69084,-2.1208 -1.75287,3.3321 -3.47266,5.53558 -1.71979,2.19935 -3.75377,4.17546 -1.01701,1.01286 -2.14562,1.01286 -0.90125,0 -1.46349,-0.64906 -0.56636,-0.64906 -0.56636,-1.60817 0,-1.12861 0.78962,-2.08773 l 0.73173,-0.90123 q 3.10473,-3.8406 4.6881,-6.3252 1.01285,-1.63298 2.05878,-3.89021 1.04592,-2.26136 2.73679,-6.1557 1.07487,-2.48046 4.46069,-2.48046 1.57925,0 2.19935,0.28112 0.62013,0.28112 0.62013,0.90123 0,0.339 -0.22738,1.07487 -0.22323,0.73174 -0.61598,1.46761 -1.017,2.02985 -1.017,3.43958 0,0.8475 0.59118,1.86449 0.59531,1.01699 1.83555,2.53835 1.8066,2.37299 2.7368,4.03903 0.93017,1.66192 0.93017,3.63802 0,2.37299 -1.09969,4.48965 -1.09966,2.11667 -3.07578,3.41478 -1.9761,1.29811 -4.51446,1.29811 z"
         style="display:inline;fill:#ffffff;fill-rule:nonzero;stroke-width:0.264583" />
    </g>
  </g>
  <g
     inkscape:groupmode="layer"
     id="layer2"
     inkscape:label="BBC Logo">
    <g
       id="g5783"
       style="display:inline"
       transform="matrix(0.23857849,0,0,0.23857849,-22.763232,39.187487)">
      <g
         id="g5768">
        <path
           id="rect5692-7"
           style="fill:#ffffff;fill-opacity:1;stroke:none;stroke-width:0.901714;stroke-opacity:1"
           d="M 607.14258 263.36328 L 607.14258 402.95508 L 754.76367 402.95508 L 754.76367 263.36328 L 607.14258 263.36328 z M 645.89258 282.73828 L 675.20703 282.73828 C 681.16245 282.73829 687.15794 283.23798 692.78125 285.23242 C 696.93563 286.81004 700.91346 289.12196 703.95312 292.41016 C 707.55585 296.2964 709.72773 301.33381 710.28516 306.58594 C 710.26981 309.39382 710.4922 312.32181 709.73633 315.05664 C 708.73838 320.1149 705.43745 324.38502 701.31445 327.35547 C 700.4913 328.2341 698.2209 328.66044 698.25977 329.70703 C 704.21706 331.34282 709.78032 334.58425 713.79492 339.32422 C 717.2175 343.39682 719.33374 348.72459 719.34375 354.07031 C 719.82024 358.08213 718.73166 362.05893 717.26562 365.75977 C 714.91125 370.91756 710.63555 374.99649 705.73242 377.73438 C 699.58512 381.24545 692.49795 382.67587 685.50586 382.88477 C 673.76708 383.23548 645.88477 382.97852 645.88477 382.97852 C 645.88477 382.97852 645.86003 315.98076 645.89258 282.73828 z M 663.60938 298.28711 L 663.69531 324.32031 C 663.69531 324.32031 679.28333 325.00255 685.46875 322.16211 C 689.50271 320.30966 692.04233 315.99831 692.29102 311.66211 C 692.50124 307.99661 691.2956 303.85948 688.32812 301.61328 C 686.06517 299.90037 683.19658 298.92992 680.33594 298.66602 C 675.7965 298.24931 663.60938 298.28711 663.60938 298.28711 z M 671.77148 339.7168 C 667.29848 339.70963 663.6875 339.77539 663.6875 339.77539 C 663.72765 349.57333 663.875 367.32812 663.875 367.32812 L 679.61328 367.32812 C 685.54412 367.32813 692.06254 366.82224 696.85938 362.98828 C 699.44038 360.92537 700.92357 357.64781 701.07031 354.32227 C 701.1919 351.56695 700.65239 348.82085 699.04688 346.60938 C 695.84873 342.2042 690.20591 340.54134 685.0332 340.09961 C 681.57944 339.80467 676.24449 339.72396 671.77148 339.7168 z "
           transform="matrix(1.1089991,0,0,1.1089991,95.411921,-164.25407)" />
      </g>
      <g
         id="g5772">
        <path
           id="rect5692-9"
           style="fill:#ffffff;fill-opacity:1;stroke:none;stroke-width:0.901714;stroke-opacity:1"
           d="M 776.93945 263.34766 L 776.93945 402.9375 L 924.56055 402.9375 L 924.56055 263.34766 L 776.93945 263.34766 z M 856.9082 281.43164 C 858.93287 281.43039 860.95574 281.51579 862.96875 281.6875 C 873.70329 282.62761 884.12244 285.87058 894.0293 289.97461 L 894.0293 308.09961 C 894.0293 308.09961 891.84114 307.04924 889.74609 306.19531 C 881.59559 301.78802 872.76235 298.24919 863.49805 297.58984 C 859.01094 297.27049 854.4334 297.17452 849.98633 297.83008 C 841.36639 299.10076 832.84725 302.79063 826.91992 309.34961 C 821.61829 314.68163 818.39327 322.02947 817.70508 329.49414 C 816.78614 338.22644 819.17871 347.3231 824.62695 354.25391 C 830.66131 362.17412 840.38621 366.44914 850.0625 367.80273 C 860.83374 369.32097 871.89573 367.34359 881.86328 363.12891 C 886.41216 361.39479 890.58638 358.72877 894.81055 356.44531 C 895.07673 361.02133 894.95473 368.81584 894.91992 375.14258 C 883.56022 381.1264 870.75774 384.09722 857.94727 384.25586 C 856.11327 384.43366 854.28736 384.19871 852.45508 384.13672 C 839.95588 383.58588 827.33408 379.61729 817.63281 371.53516 C 811.62081 366.46667 806.54081 360.15814 803.34961 352.93359 C 800.16784 345.84998 798.68299 337.98993 799.34961 330.23828 C 800.18495 317.84392 805.5752 305.65587 814.83398 297.26172 C 819.42765 292.52657 825.23686 289.09753 831.23633 286.45117 C 839.33496 283.07704 848.13466 281.43704 856.9082 281.43164 z "
           transform="matrix(1.1089991,0,0,1.1089991,95.411921,-164.25407)" />
      </g>
      <g
         id="g5764">
        <path
           id="rect5692"
           style="fill:#ffffff;fill-opacity:1;stroke:none;stroke-width:0.901714;stroke-opacity:1"
           d="M 437.34766 263.24805 L 437.34766 402.83984 L 584.96875 402.83984 L 584.96875 263.24805 L 437.34766 263.24805 z M 476.14453 282.63867 L 505.46094 282.63867 C 511.41635 282.63868 517.41184 283.13837 523.03516 285.13281 C 527.18953 286.71043 531.16736 289.0243 534.20703 292.3125 C 537.80976 296.19874 539.98163 301.2342 540.53906 306.48633 C 540.52372 309.29421 540.74611 312.22415 539.99023 314.95898 C 538.99229 320.01724 535.69136 324.28541 531.56836 327.25586 C 530.7452 328.13449 528.47481 328.56083 528.51367 329.60742 C 534.47096 331.24321 540.03227 334.48464 544.04688 339.22461 C 547.46946 343.29721 549.58765 348.62498 549.59766 353.9707 C 550.07415 357.98252 548.98361 361.95932 547.51758 365.66016 C 545.1632 370.81795 540.88946 374.89688 535.98633 377.63477 C 529.83903 381.14584 522.75185 382.57626 515.75977 382.78516 C 504.02099 383.13587 476.13867 382.88086 476.13867 382.88086 C 476.13867 382.88086 476.11198 315.88115 476.14453 282.63867 z M 493.86328 298.1875 L 493.94727 324.22266 C 493.94727 324.22266 509.53723 324.9049 515.72266 322.06445 C 519.75662 320.21201 522.29624 315.8987 522.54492 311.5625 C 522.75515 307.897 521.54951 303.75987 518.58203 301.51367 C 516.31908 299.80076 513.45049 298.83031 510.58984 298.56641 C 506.05041 298.1497 493.86328 298.1875 493.86328 298.1875 z M 502.02344 339.61719 C 497.55043 339.61002 493.94141 339.67773 493.94141 339.67773 C 493.98156 349.47568 494.12891 367.22852 494.12891 367.22852 L 509.86719 367.22852 C 515.79802 367.22852 522.31644 366.72263 527.11328 362.88867 C 529.69428 360.82576 531.17552 357.55016 531.32227 354.22461 C 531.44385 351.4693 530.9063 348.72319 529.30078 346.51172 C 526.10264 342.10654 520.45982 340.44368 515.28711 340.00195 C 511.83334 339.70702 506.49645 339.62435 502.02344 339.61719 z "
           transform="matrix(1.1089991,0,0,1.1089991,95.411921,-164.25407)" />
      </g>
    </g>
  </g>
</svg>
